<?xml version="1.0" encoding="utf-8"?>
<!-- Generator: Adobe Illustrator 20.1.0, SVG Export Plug-In . SVG Version: 6.00 Build 0)  -->
<svg version="1.1" id="Layer_1" xmlns="http://www.w3.org/2000/svg" xmlns:xlink="http://www.w3.org/1999/xlink" x="0px" y="0px"
	 viewBox="0 0 750 500" style="enable-background:new 0 0 750 500;" xml:space="preserve">
<style type="text/css">
	.st0{fill:#231C6F;}
	.st1{clip-path:url(#SVGID_2_);}
	.st2{opacity:0.72;}
	.st3{opacity:0.28;}
	.st4{fill:#FFFFFF;}
	.st5{opacity:0.36;}
	.st6{opacity:0.73;}
	.st7{opacity:0.32;}
	.st8{opacity:0.44;}
	.st9{opacity:0.58;}
	.st10{opacity:0.47;fill:#FFFFFF;enable-background:new    ;}
	.st11{opacity:0.41;}
	.st12{fill:#140035;}
	.st13{fill:url(#SVGID_3_);}
	.st14{fill:url(#SVGID_4_);}
	.st15{fill:url(#SVGID_5_);}
	.st16{fill:url(#SVGID_6_);}
	.st17{fill:url(#SVGID_7_);}
	.st18{fill:url(#SVGID_8_);}
	.st19{fill:url(#SVGID_9_);}
	.st20{fill:url(#SVGID_10_);}
	.st21{fill:url(#SVGID_11_);}
	.st22{fill:url(#SVGID_12_);}
	.st23{fill:url(#SVGID_13_);}
	.st24{fill:url(#SVGID_14_);}
	.st25{fill:url(#SVGID_15_);}
	.st26{fill:url(#SVGID_16_);}
	.st27{fill:url(#SVGID_17_);}
	.st28{fill:url(#SVGID_18_);}
	.st29{fill:url(#SVGID_19_);}
	.st30{fill:url(#SVGID_20_);}
	.st31{fill:url(#SVGID_21_);}
	.st32{fill:url(#SVGID_22_);}
	.st33{fill:url(#SVGID_23_);}
	.st34{fill:url(#SVGID_24_);}
	.st35{fill:url(#SVGID_25_);}
	.st36{fill:url(#SVGID_26_);}
	.st37{fill:url(#SVGID_27_);}
	.st38{fill:url(#SVGID_28_);}
	.st39{fill:url(#SVGID_29_);}
	.st40{fill:url(#SVGID_30_);}
	.st41{fill:url(#SVGID_31_);}
	.st42{fill:url(#SVGID_32_);}
	.st43{fill:url(#SVGID_33_);}
	.st44{fill:url(#SVGID_34_);}
	.st45{fill:url(#SVGID_35_);}
	.st46{fill:url(#SVGID_36_);}
	.st47{fill:url(#SVGID_37_);}
	.st48{fill:url(#SVGID_38_);}
	.st49{fill:url(#SVGID_39_);}
	.st50{fill:url(#SVGID_40_);}
	.st51{fill:url(#SVGID_41_);}
	.st52{fill:url(#SVGID_42_);}
	.st53{fill:url(#SVGID_43_);}
	.st54{fill:url(#SVGID_44_);}
	.st55{fill:url(#SVGID_45_);}
	.st56{fill:url(#SVGID_46_);}
	.st57{fill:url(#SVGID_47_);}
	.st58{fill:url(#SVGID_48_);}
	.st59{fill:url(#SVGID_49_);}
	.st60{fill:url(#SVGID_50_);}
	.st61{fill:url(#SVGID_51_);}
	.st62{fill:url(#SVGID_52_);}
	.st63{fill:url(#SVGID_53_);}
	.st64{fill:url(#SVGID_54_);}
	.st65{fill:url(#SVGID_55_);}
	.st66{fill:url(#SVGID_56_);}
	.st67{fill:url(#SVGID_57_);}
</style>
<title>Asset 1</title>
<g>
	<g id="Layer_2">
		<g id="BACKGROUND_2">
			<rect class="st0" width="750" height="500"/>
			<g>
				<defs>
					<rect id="SVGID_1_" width="750" height="500"/>
				</defs>
				<clipPath id="SVGID_2_">
					<use xlink:href="#SVGID_1_"  style="overflow:visible;"/>
				</clipPath>
				<g class="st1">
					
						<image style="overflow:visible;enable-background:new    ;" width="751" height="559" xlink:href="E2F7913E02396BC.png"  transform="matrix(1 0 0 1 -0.5 0)">
					</image>
					<g class="st2">
						
							<image style="overflow:visible;enable-background:new    ;" width="659" height="358" xlink:href="E2F7913E02396BD.png"  transform="matrix(1 0 0 1 45.5 2)">
						</image>
					</g>
					<g>
						<g class="st3">
							<polygon class="st4" points="38.2,93.4 40.1,95 38.6,93 40.1,91 38.2,92.6 36.2,91 37.7,93 36.2,95 							"/>
							<polygon class="st4" points="38.6,93.5 43,93 38.6,92.5 38.2,88.2 37.7,92.5 33.3,93 37.7,93.5 38.2,97.8 							"/>
						</g>
						<polygon class="st4" points="292.4,94.7 293.2,95.3 292.6,94.5 293.2,93.8 292.4,94.4 291.6,93.8 292.2,94.5 291.6,95.3 
													"/>
						<polygon class="st4" points="292.5,94.6 294.1,94.5 292.5,94.5 292.4,92.5 292.3,94.5 290.4,94.5 292.3,94.6 292.4,96.3 
													"/>
						<polygon class="st4" points="224.7,248.8 225.9,248.6 224.7,248.5 224.6,247.3 224.5,248.5 223.2,248.6 224.5,248.8 
							224.6,250 						"/>
						<g class="st3">
							<polygon class="st4" points="319.6,141.8 321.6,141.5 319.6,141.3 319.4,139.4 319.2,141.3 317.2,141.5 319.2,141.8 
								319.4,143.7 							"/>
						</g>
						<g class="st3">
							<polygon class="st4" points="372.3,77.5 374.3,77.3 372.3,77 372.1,75.1 371.9,77 369.9,77.3 371.9,77.5 372.1,79.4 							
								"/>
						</g>
						<polygon class="st4" points="270.4,282 271.8,281.9 270.4,281.7 270.2,280.3 270.1,281.7 268.7,281.9 270.1,282 270.2,283.4 
													"/>
						<g class="st5">
							<polygon class="st4" points="101.8,124.2 103.2,124.1 101.8,123.9 101.6,122.5 101.5,123.9 100.1,124.1 101.5,124.2 
								101.6,125.6 							"/>
						</g>
						<g class="st6">
							<polygon class="st4" points="214.5,319.1 216.5,318.9 214.5,318.7 214.3,316.7 214.1,318.7 212.2,318.9 214.1,319.1 
								214.3,321.1 							"/>
						</g>
						<g class="st5">
							<polygon class="st4" points="388.3,163.2 389.5,163.1 388.3,162.9 388.2,161.7 388.1,162.9 386.9,163.1 388.1,163.2 
								388.2,164.4 							"/>
						</g>
						<g class="st5">
							<polygon class="st4" points="373.5,14.5 374.8,14.4 373.5,14.2 373.4,13 373.3,14.2 372.1,14.4 373.3,14.5 373.4,15.7 
															"/>
						</g>
						<g class="st7">
							<polygon class="st4" points="264.3,136 266.3,135.8 264.3,135.6 264.1,133.6 263.9,135.6 261.9,135.8 263.9,136 264.1,137.9 
															"/>
						</g>
						<g class="st5">
							<polygon class="st4" points="68.8,28.6 70.2,28.5 68.8,28.3 68.7,26.9 68.5,28.3 67.1,28.5 68.5,28.6 68.7,30 							"/>
						</g>
						<polygon class="st4" points="122.5,230.3 124.6,230.1 122.5,229.8 122.2,227.7 122,229.8 119.8,230.1 122,230.3 122.2,232.5 
													"/>
						<g class="st8">
							<polygon class="st4" points="109.5,167.9 110.2,167.8 109.5,167.8 109.4,167.1 109.3,167.8 108.6,167.8 109.3,167.9 
								109.4,168.6 							"/>
						</g>
						<g class="st5">
							<polygon class="st4" points="229.3,101.1 230.7,101 229.3,100.8 229.1,99.4 229,100.8 227.6,101 229,101.1 229.1,102.5 
															"/>
						</g>
						<polygon class="st4" points="393.3,104.5 394,104.4 393.3,104.3 393.3,103.6 393.2,104.3 392.5,104.4 393.2,104.5 
							393.3,105.2 						"/>
						<polygon class="st4" points="184.9,146.2 185.6,146.1 184.9,146.1 184.9,145.4 184.8,146.1 184.1,146.1 184.8,146.2 
							184.9,146.9 						"/>
						<polygon class="st4" points="76.7,156.3 79.9,156 76.7,155.6 76.4,152.5 76,155.6 72.9,156 76,156.3 76.4,159.4 						"/>
						<g class="st5">
							<polygon class="st4" points="281.6,4.6 283,4.4 281.6,4.3 281.5,2.9 281.4,4.3 280,4.4 281.4,4.6 281.5,5.9 							"/>
						</g>
						<g class="st3">
							<polygon class="st4" points="261.4,147.9 262.1,147.8 261.4,147.7 261.3,146.9 261.2,147.7 260.4,147.8 261.2,147.9 
								261.3,148.6 							"/>
						</g>
						<g class="st7">
							<polygon class="st4" points="290.9,230.9 292.3,230.7 290.9,230.6 290.8,229.1 290.6,230.6 289.2,230.7 290.6,230.9 
								290.8,232.3 							"/>
						</g>
						<polygon class="st4" points="293.4,156.5 294.8,156.4 293.4,156.2 293.2,154.8 293.1,156.2 291.7,156.4 293.1,156.5 
							293.2,157.9 						"/>
						<polygon class="st4" points="84.2,46.6 87.2,46.3 84.2,46 83.8,42.9 83.5,46 80.4,46.3 83.5,46.6 83.8,49.7 						"/>
						<polygon class="st4" points="183.8,231.6 184.5,231.6 183.8,231.5 183.7,230.7 183.6,231.5 182.8,231.6 183.6,231.6 
							183.7,232.4 						"/>
						<polygon class="st4" points="201.2,260.3 202.6,260.1 201.2,260 201.1,258.6 200.9,260 199.5,260.1 200.9,260.3 201.1,261.7 
													"/>
						<polygon class="st4" points="152.7,155.2 153.4,155.1 152.7,155 152.6,154.4 152.6,155 151.9,155.1 152.6,155.2 152.6,155.8 
													"/>
						<g class="st3">
							<polygon class="st4" points="317.1,236.1 318.5,236 317.1,235.8 317,234.4 316.8,235.8 315.4,236 316.8,236.1 317,237.5 
															"/>
						</g>
						<polygon class="st4" points="259.2,189.3 260.6,189.1 259.2,189 259.1,187.6 258.9,189 257.6,189.1 258.9,189.3 259.1,190.6 
													"/>
						<g class="st7">
							<polygon class="st4" points="125.2,266.7 127.2,266.5 125.2,266.2 125,264.3 124.8,266.2 122.8,266.5 124.8,266.7 125,268.6 
															"/>
						</g>
						<g class="st9">
							<polygon class="st4" points="100.2,313.5 101.6,313.3 100.2,313.2 100.1,311.8 99.9,313.2 98.6,313.3 99.9,313.5 
								100.1,314.8 							"/>
						</g>
						<polygon class="st4" points="313.1,192.6 313.9,192.5 313.1,192.4 313,191.6 313,192.4 312.2,192.5 313,192.6 313,193.4 
													"/>
						<g class="st3">
							<polygon class="st4" points="30.6,197.9 32.1,197.7 30.6,197.6 30.5,196.2 30.3,197.6 28.9,197.7 30.3,197.9 30.5,199.3 
															"/>
						</g>
						<polygon class="st4" points="26.7,154.3 27.4,154.3 26.7,154.2 26.6,153.4 26.5,154.2 25.7,154.3 26.5,154.3 26.6,155.1 
													"/>
						<g class="st9">
							<polygon class="st4" points="46.2,271.5 47,271.4 46.2,271.3 46.2,270.6 46.1,271.3 45.3,271.4 46.1,271.5 46.2,272.3 
															"/>
						</g>
						<polygon class="st4" points="11,199.2 11.8,199.1 11,199 10.9,198.2 10.8,199 10.1,199.1 10.8,199.2 10.9,199.9 						"/>
						<polygon class="st4" points="47.5,220 48.9,219.9 47.5,219.7 47.4,218.4 47.2,219.7 45.9,219.9 47.2,220 47.4,221.4 						"/>
						<polygon class="st4" points="212.3,176.3 213.2,176.2 212.3,176.1 212.2,175.2 212.1,176.1 211.1,176.2 212.1,176.3 
							212.2,177.2 						"/>
						<polygon class="st4" points="390.8,247.6 392.2,247.4 390.8,247.3 390.7,245.9 390.5,247.3 389.1,247.4 390.5,247.6 
							390.7,249 						"/>
						<g class="st5">
							<polygon class="st4" points="357.9,237.5 359.3,237.3 357.9,237.2 357.8,235.8 357.6,237.2 356.2,237.3 357.6,237.5 
								357.8,238.9 							"/>
						</g>
						<g class="st5">
							<polygon class="st4" points="356.4,185.9 357.8,185.7 356.4,185.6 356.2,184.1 356.1,185.6 354.7,185.7 356.1,185.9 
								356.2,187.3 							"/>
						</g>
						<g class="st8">
							<polygon class="st4" points="365.7,281.2 366.4,281.1 365.7,281 365.6,280.3 365.5,281 364.8,281.1 365.5,281.2 365.6,281.9 
															"/>
						</g>
						<polygon class="st4" points="368.1,198.6 369.5,198.4 368.1,198.3 367.9,196.9 367.8,198.3 366.4,198.4 367.8,198.6 
							367.9,200 						"/>
						<polygon class="st4" points="277.9,286.7 279.9,286.5 277.9,286.2 277.7,284.3 277.5,286.2 275.5,286.5 277.5,286.7 
							277.7,288.6 						"/>
						<polygon class="st4" points="132.6,216.8 133.4,216.8 132.6,216.7 132.6,215.9 132.5,216.7 131.7,216.8 132.5,216.8 
							132.6,217.6 						"/>
						<polygon class="st4" points="170.4,11.8 171.9,11.6 170.4,11.5 170.3,10.1 170.1,11.5 168.7,11.6 170.1,11.8 170.3,13.2 
													"/>
						<g class="st5">
							<polygon class="st4" points="137.6,1.7 139,1.5 137.6,1.4 137.4,-0.1 137.3,1.4 135.9,1.5 137.3,1.7 137.4,3.1 							"/>
						</g>
						<g class="st8">
							<polygon class="st4" points="145.6,47 146.3,47 145.6,46.9 145.5,46 145.4,46.9 144.7,47 145.4,47 145.5,47.9 							"/>
						</g>
						<polygon class="st4" points="480.4,78.1 481.1,78 480.4,78 480.3,77.3 480.2,78 479.5,78 480.2,78.1 480.3,78.8 						"/>
						<g class="st5">
							<polygon class="st4" points="483.6,3 484.9,2.9 483.6,2.8 483.4,1.4 483.3,2.8 481.9,2.9 483.3,3 483.4,4.4 							"/>
						</g>
						<g class="st3">
							<polygon class="st4" points="238.4,20.9 239.8,20.7 238.4,20.5 238.3,19.2 238.1,20.5 236.7,20.7 238.1,20.9 238.3,22.2 
															"/>
						</g>
						<polygon class="st4" points="17.2,22.5 18.6,22.3 17.2,22.2 17,20.8 16.9,22.2 15.5,22.3 16.9,22.5 17,23.9 						"/>
						<polygon class="st4" points="327.3,17.1 328,17 327.3,16.9 327.2,16.2 327.1,16.9 326.5,17 327.1,17.1 327.2,17.8 						"/>
						<polygon class="st4" points="423.2,20.9 424.6,20.8 423.2,20.6 423.1,19.2 422.9,20.6 421.5,20.8 422.9,20.9 423.1,22.3 
													"/>
						<g class="st3">
							<polygon class="st4" points="446.9,100.5 448.3,100.3 446.9,100.2 446.8,98.8 446.6,100.2 445.2,100.3 446.6,100.5 
								446.8,101.9 							"/>
						</g>
						<polygon class="st4" points="441.9,47.2 442.6,47.1 441.9,47.1 441.8,46.3 441.7,47.1 440.9,47.1 441.7,47.2 441.8,48 						
							"/>
						<polygon class="st4" points="427.3,101.8 428,101.7 427.3,101.6 427.2,100.8 427.1,101.6 426.3,101.7 427.1,101.8 
							427.2,102.5 						"/>
						<polygon class="st4" points="463.8,122.6 465.2,122.5 463.8,122.3 463.7,121 463.5,122.3 462.1,122.5 463.5,122.6 463.7,124 
													"/>
						<polygon class="st4" points="270.4,54.7 272,54.5 270.4,54.3 270.2,52.7 270.1,54.3 268.5,54.5 270.1,54.7 270.2,56.3 						
							"/>
						<polygon class="st4" points="222,213.6 223.5,213.4 222,213.3 221.8,211.7 221.6,213.3 220,213.4 221.6,213.6 221.8,215.2 
													"/>
						<g class="st3">
							<polygon class="st4" points="374,144.2 376,145.7 374.5,143.8 376,141.8 374,143.3 372.1,141.8 373.6,143.8 372.1,145.7 
															"/>
							<polygon class="st4" points="374.5,144.2 378.8,143.8 374.5,143.3 374,139 373.6,143.3 369.3,143.8 373.6,144.2 374,148.5 
															"/>
						</g>
						<polygon class="st4" points="535.6,264.1 536.3,264.7 535.7,263.9 536.3,263.2 535.6,263.8 534.8,263.2 535.4,263.9 
							534.8,264.7 						"/>
						<polygon class="st10" points="535.6,264 537.2,263.9 535.6,263.9 535.6,261.9 535.5,263.9 533.5,263.9 535.5,264 535.6,265.7 
													"/>
						<polygon class="st4" points="707.9,167.2 709.3,167.1 707.9,166.9 707.7,165.5 707.6,166.9 706.2,167.1 707.6,167.2 
							707.7,168.6 						"/>
						<g class="st5">
							<polygon class="st4" points="598.6,124.2 600,124.1 598.6,123.9 598.4,122.5 598.3,123.9 596.9,124.1 598.3,124.2 
								598.4,125.6 							"/>
						</g>
						<g class="st9">
							<polygon class="st4" points="566.3,280.4 568.3,280.2 566.3,280 566.1,278.1 565.9,280 564,280.2 565.9,280.4 566.1,282.4 
															"/>
						</g>
						<g class="st5">
							<polygon class="st4" points="565.6,28.6 567,28.5 565.6,28.3 565.5,26.9 565.3,28.3 563.9,28.5 565.3,28.6 565.5,30 							
								"/>
						</g>
						<polygon class="st10" points="577.5,237.9 578.9,237.7 577.5,237.6 577.3,236.1 577.2,237.6 575.8,237.7 577.2,237.9 
							577.3,239.3 						"/>
						<polygon class="st4" points="560.9,175.5 561.6,175.4 560.9,175.3 560.8,174.6 560.8,175.3 560,175.4 560.8,175.5 
							560.8,176.2 						"/>
						<g class="st5">
							<polygon class="st4" points="726.1,101.1 727.5,101 726.1,100.8 726,99.4 725.8,100.8 724.4,101 725.8,101.1 726,102.5 
															"/>
						</g>
						<g class="st5">
							<polygon class="st4" points="627.7,135.9 629.2,135.8 627.7,135.6 627.6,134.2 627.4,135.6 626,135.8 627.4,135.9 
								627.6,137.3 							"/>
						</g>
						<polygon class="st4" points="681.7,146.2 682.4,146.1 681.7,146.1 681.7,145.4 681.6,146.1 680.9,146.1 681.6,146.2 
							681.7,146.9 						"/>
						<polygon class="st10" points="490,247.3 492,247.1 490,246.9 489.8,244.9 489.6,246.9 487.7,247.1 489.6,247.3 489.8,249.3 
													"/>
						<g class="st5">
							<polygon class="st4" points="490,151.4 491.3,151.3 490,151.1 489.8,149.8 489.7,151.1 488.3,151.3 489.7,151.4 489.8,152.8 
															"/>
						</g>
						<g class="st7">
							<polygon class="st4" points="499.3,377.7 500.7,377.6 499.3,377.4 499.1,376 499,377.4 497.6,377.6 499,377.7 499.1,379.1 
															"/>
						</g>
						<polygon class="st4" points="571.8,37.5 573.2,37.3 571.8,37.2 571.7,35.8 571.5,37.2 570.1,37.3 571.5,37.5 571.7,38.9 
													"/>
						<g class="st3">
							<polygon class="st4" points="680.6,231.6 681.3,231.6 680.6,231.5 680.5,230.7 680.4,231.5 679.6,231.6 680.4,231.6 
								680.5,232.4 							"/>
						</g>
						<polygon class="st4" points="377.5,381 379,380.8 377.5,380.7 377.4,379.3 377.2,380.7 375.8,380.8 377.2,381 377.4,382.4 
													"/>
						<polygon class="st4" points="608.7,85.4 610.1,85.2 608.7,85 608.6,83.6 608.4,85 607,85.2 608.4,85.4 608.6,86.8 						"/>
						<g class="st3">
							<polygon class="st4" points="525.4,383 526.8,382.8 525.4,382.7 525.3,381.3 525.1,382.7 523.7,382.8 525.1,383 525.3,384.4 
															"/>
						</g>
						<g class="st3">
							<polygon class="st4" points="172,487.7 173.4,487.6 172,487.4 171.9,486 171.7,487.4 170.3,487.6 171.7,487.7 171.9,489.1 
															"/>
						</g>
						<polygon class="st4" points="341.3,278.2 342.6,278.1 341.3,277.9 341.1,276.5 341,277.9 339.6,278.1 341,278.2 341.1,279.6 
													"/>
						<g class="st7">
							<polygon class="st4" points="622,266.7 624,266.5 622,266.2 621.8,264.3 621.6,266.2 619.6,266.5 621.6,266.7 621.8,268.6 
															"/>
						</g>
						<polygon class="st4" points="639.4,216.3 640.1,216.2 639.4,216.1 639.3,215.4 639.2,216.1 638.5,216.2 639.2,216.3 
							639.3,217 						"/>
						<g class="st9">
							<polygon class="st4" points="597,313.5 598.4,313.3 597,313.2 596.9,311.8 596.7,313.2 595.4,313.3 596.7,313.5 596.9,314.8 
															"/>
						</g>
						<polygon class="st4" points="521.5,339.4 522.2,339.4 521.5,339.3 521.4,338.5 521.3,339.3 520.5,339.4 521.3,339.4 
							521.4,340.2 						"/>
						<g class="st3">
							<polygon class="st4" points="527.5,197.9 528.9,197.7 527.5,197.6 527.3,196.2 527.2,197.6 525.8,197.7 527.2,197.9 
								527.3,199.3 							"/>
						</g>
						<polygon class="st4" points="574,125.7 574.8,125.6 574,125.6 573.9,124.8 573.8,125.6 573,125.6 573.8,125.7 573.9,126.5 
													"/>
						<polygon class="st4" points="272.1,335 272.9,334.9 272.1,334.8 272,334.1 271.9,334.8 271.2,334.9 271.9,335 272,335.8 
													"/>
						<polygon class="st4" points="330.1,237.6 330.9,237.5 330.1,237.4 330,236.7 330,237.4 329.2,237.5 330,237.6 330,238.4 
													"/>
						<g class="st7">
							<polygon class="st4" points="419,311.9 420.4,311.7 419,311.6 418.8,310.2 418.7,311.6 417.3,311.7 418.7,311.9 418.8,313.3 
															"/>
						</g>
						<g class="st3">
							<polygon class="st4" points="445.1,317.1 446.6,317 445.1,316.8 445,315.4 444.9,316.8 443.4,317 444.9,317.1 445,318.6 
															"/>
						</g>
						<g class="st3">
							<polygon class="st4" points="304.4,321.2 305.9,321.1 304.4,320.9 304.3,319.5 304.1,320.9 302.7,321.1 304.1,321.2 
								304.3,322.6 							"/>
						</g>
						<polygon class="st4" points="518.9,328.6 520.3,328.5 518.9,328.3 518.7,326.9 518.6,328.3 517.2,328.5 518.6,328.6 
							518.7,330 						"/>
						<g class="st5">
							<polygon class="st4" points="486,318.5 487.4,318.4 486,318.2 485.8,316.8 485.7,318.2 484.3,318.4 485.7,318.5 485.8,319.9 
															"/>
						</g>
						<polygon class="st4" points="496.1,279.6 497.5,279.5 496.1,279.3 496,277.9 495.8,279.3 494.4,279.5 495.8,279.6 496,281 
													"/>
						<polygon class="st4" points="458.2,318.6 459,318.6 458.2,318.5 458.1,317.7 458,318.5 457.2,318.6 458,318.6 458.1,319.4 
													"/>
						<g class="st3">
							<polygon class="st4" points="0.8,305.7 2.2,305.6 0.8,305.4 0.6,304 0.5,305.4 -0.9,305.6 0.5,305.7 0.6,307.1 							"/>
						</g>
						<polygon class="st4" points="-3.2,262.2 -2.4,262.1 -3.2,262 -3.3,261.2 -3.4,262 -4.1,262.1 -3.4,262.2 -3.3,263 						"/>
						<polygon class="st4" points="74.5,317.2 75.9,317.1 74.5,316.9 74.4,315.5 74.2,316.9 72.8,317.1 74.2,317.2 74.4,318.6 
													"/>
						<g class="st5">
							<polygon class="st4" points="94.6,394.9 96,394.8 94.6,394.6 94.5,393.2 94.3,394.6 92.9,394.8 94.3,394.9 94.5,396.3 
															"/>
						</g>
						<g class="st9">
							<polygon class="st4" points="538.3,93.9 539.7,93.8 538.3,93.6 538.2,92.2 538,93.6 536.6,93.8 538,93.9 538.2,95.4 							
								"/>
						</g>
						<polygon class="st4" points="13.8,307.2 14.6,307.1 13.8,307 13.7,306.3 13.7,307 12.9,307.1 13.7,307.2 13.7,308 						"/>
						<polygon class="st4" points="507.8,199.2 508.6,199.1 507.8,199 507.7,198.2 507.6,199 506.9,199.1 507.6,199.2 507.7,199.9 
													"/>
						<polygon class="st4" points="361.6,322.2 362.4,322.1 361.6,322 361.5,321.2 361.5,322 360.7,322.1 361.5,322.2 361.5,322.9 
													"/>
						<polygon class="st4" points="606.1,184.6 609.2,184.3 606.1,184 605.8,180.9 605.4,184 602.4,184.3 605.4,184.6 605.8,187.7 
													"/>
						<g class="st5">
							<polygon class="st4" points="610,360.4 611.4,360.2 610,360.1 609.9,358.7 609.7,360.1 608.3,360.2 609.7,360.4 609.9,361.8 
															"/>
						</g>
						<g class="st5">
							<polygon class="st4" points="564.7,332.7 566.1,332.6 564.7,332.4 564.5,331 564.4,332.4 563,332.6 564.4,332.7 564.5,334.1 
															"/>
						</g>
						<g class="st8">
							<polygon class="st4" points="574,428 574.7,427.9 574,427.9 573.9,427.1 573.8,427.9 573.1,427.9 573.8,428 573.9,428.7 
															"/>
						</g>
						<g class="st8">
							<polygon class="st4" points="442.7,207.7 443.4,207.6 442.7,207.5 442.6,206.8 442.6,207.5 441.9,207.6 442.6,207.7 
								442.6,208.4 							"/>
						</g>
						<polygon class="st4" points="257.7,343 259.1,342.8 257.7,342.6 257.6,341.2 257.4,342.6 256,342.8 257.4,343 257.6,344.3 
													"/>
						<polygon class="st4" points="21.4,340.5 22.1,340.4 21.4,340.4 21.3,339.7 21.2,340.4 20.5,340.4 21.2,340.5 21.3,341.2 
													"/>
						<polygon class="st4" points="51,445.4 52.6,445.2 51,445.1 50.8,443.5 50.7,445.1 49.1,445.2 50.7,445.4 50.8,447 						"/>
						<g class="st11">
							<polygon class="st4" points="667.3,11.8 668.7,11.6 667.3,11.5 667.1,10.1 667,11.5 665.5,11.6 667,11.8 667.1,13.2 							
								"/>
						</g>
						<g class="st5">
							<polygon class="st4" points="634.4,1.7 635.8,1.5 634.4,1.4 634.2,-0.1 634.1,1.4 632.7,1.5 634.1,1.7 634.2,3.1 							"/>
						</g>
						<g class="st8">
							<polygon class="st4" points="642.1,45.3 642.8,45.2 642.1,45.2 642,44.5 642,45.2 641.2,45.2 642,45.3 642,46 							"/>
						</g>
						<polygon class="st4" points="735.2,20.9 736.7,20.7 735.2,20.5 735.1,19.2 735,20.5 733.5,20.7 735,20.9 735.1,22.2 						"/>
						<polygon class="st4" points="514,22.5 515.4,22.3 514,22.2 513.8,20.8 513.7,22.2 512.3,22.3 513.7,22.5 513.8,23.9 						"/>
						<g class="st11">
							<polygon class="st4" points="695.4,65.2 697.4,65 695.4,64.8 695.2,62.8 695,64.8 693,65 695,65.2 695.2,67.2 							"/>
						</g>
						<polygon class="st4" points="466.5,280.4 469.8,280.1 466.5,279.7 466.2,276.5 465.8,279.7 462.6,280.1 465.8,280.4 
							466.2,283.6 						"/>
						<polygon class="st4" points="478.8,201.5 480.3,201.3 478.8,201.2 478.6,199.6 478.4,201.2 476.8,201.3 478.4,201.5 
							478.6,203.1 						"/>
						<polygon class="st4" points="378.7,294.1 380.3,294 378.7,293.8 378.5,292.2 378.3,293.8 376.7,294 378.3,294.1 378.5,295.7 
													"/>
						<g class="st3">
							<polygon class="st4" points="334.9,351.5 336.9,353 335.3,351 336.9,349.1 334.9,350.6 332.9,349.1 334.5,351 332.9,353 
															"/>
							<polygon class="st4" points="335.4,351.5 339.7,351 335.4,350.6 334.9,346.2 334.4,350.6 330,351 334.4,351.5 334.9,355.9 
															"/>
						</g>
						<g class="st3">
							<polygon class="st4" points="141.4,355.8 143.8,357.6 141.9,355.2 143.8,352.9 141.4,354.7 139.1,352.9 140.9,355.2 
								139.1,357.6 							"/>
							<polygon class="st4" points="142,355.8 147.2,355.2 142,354.7 141.4,349.5 140.9,354.7 135.7,355.2 140.9,355.8 141.4,361 
															"/>
						</g>
						<g class="st3">
							<polygon class="st4" points="633.3,409.5 635.3,409.2 633.3,409 633.1,407.1 632.9,409 630.9,409.2 632.9,409.5 633.1,411.4 
															"/>
						</g>
						<g class="st3">
							<polygon class="st4" points="686,345.2 688,345 686,344.8 685.8,342.8 685.6,344.8 683.6,345 685.6,345.2 685.8,347.2 
															"/>
						</g>
						<g class="st5">
							<polygon class="st4" points="415.5,392 416.9,391.8 415.5,391.7 415.3,390.2 415.2,391.7 413.8,391.8 415.2,392 415.3,393.4 
															"/>
						</g>
						<g class="st5">
							<polygon class="st4" points="702,430.9 703.2,430.8 702,430.7 701.9,429.5 701.8,430.7 700.6,430.8 701.8,430.9 701.9,432.1 
															"/>
						</g>
						<polygon class="st4" points="740.2,423.1 742.2,422.8 740.2,422.6 740,420.7 739.8,422.6 737.8,422.8 739.8,423.1 740,425 
													"/>
						<g class="st8">
							<polygon class="st4" points="602,292.6 602.7,292.5 602,292.4 602,291.7 601.9,292.4 601.2,292.5 601.9,292.6 602,293.3 
															"/>
						</g>
						<polygon class="st4" points="377.8,443.2 378.5,443.1 377.8,443.1 377.7,442.4 377.6,443.1 376.9,443.1 377.6,443.2 
							377.7,443.9 						"/>
						<g class="st5">
							<polygon class="st4" points="543,368.8 544.4,368.7 543,368.5 542.8,367.1 542.7,368.5 541.3,368.7 542.7,368.8 542.8,370.2 
															"/>
						</g>
						<polygon class="st4" points="707,372.2 707.7,372.1 707,372.1 707,371.3 706.9,372.1 706.2,372.1 706.9,372.2 707,372.9 
													"/>
						<polygon class="st4" points="498.6,413.9 499.3,413.9 498.6,413.8 498.5,413.1 498.5,413.8 497.8,413.9 498.5,413.9 
							498.5,414.6 						"/>
						<polygon class="st4" points="646.4,252.1 647.1,252.7 646.5,251.9 647.1,251.1 646.4,251.8 645.6,251.1 646.2,251.9 
							645.6,252.7 						"/>
						<polygon class="st10" points="646.4,252 648,251.9 646.4,251.8 646.4,249.8 646.3,251.8 644.4,251.9 646.3,252 646.4,253.7 
													"/>
						<polygon class="st4" points="717.3,209.5 719.2,209.3 717.3,209 717,207.1 716.8,209 714.9,209.3 716.8,209.5 717,211.4 
													"/>
						<polygon class="st10" points="738.8,118.1 740.2,117.9 738.8,117.8 738.7,116.3 738.5,117.8 737.1,117.9 738.5,118.1 
							738.7,119.5 						"/>
						<polygon class="st10" points="654.3,178.9 656.3,178.7 654.3,178.4 654.1,176.5 653.9,178.4 651.9,178.7 653.9,178.9 
							654.1,180.8 						"/>
						<g class="st7">
							<polygon class="st4" points="663.5,309.2 664.9,309.1 663.5,308.9 663.4,307.5 663.2,308.9 661.8,309.1 663.2,309.2 
								663.4,310.7 							"/>
						</g>
						<g class="st3">
							<polygon class="st4" points="232.6,180.2 234,180.1 232.6,179.9 232.5,178.5 232.3,179.9 230.9,180.1 232.3,180.2 
								232.5,181.6 							"/>
						</g>
						<g class="st7">
							<polygon class="st4" points="694.8,109.6 696.8,109.4 694.8,109.2 694.6,107.2 694.4,109.2 692.4,109.4 694.4,109.6 
								694.6,111.6 							"/>
						</g>
						<g class="st3">
							<polygon class="st4" points="651.3,97.8 652.7,97.6 651.3,97.5 651.2,96.1 651,97.5 649.7,97.6 651,97.8 651.2,99.1 							
								"/>
						</g>
						<polygon class="st4" points="685.7,271 686.5,270.9 685.7,270.8 685.6,270 685.5,270.8 684.8,270.9 685.5,271 685.6,271.8 
													"/>
						<g class="st5">
							<polygon class="st4" points="731.2,323.6 732.6,323.4 731.2,323.3 731.1,321.9 730.9,323.3 729.5,323.4 730.9,323.6 
								731.1,325 							"/>
						</g>
						<g class="st5">
							<polygon class="st4" points="729,264.2 730.4,264.1 729,264 728.8,262.5 728.7,264 727.3,264.1 728.7,264.2 728.8,265.7 
															"/>
						</g>
						<g class="st8">
							<polygon class="st4" points="766.3,224.1 767,224 766.3,224 766.2,223.3 766.2,224 765.5,224 766.2,224.1 766.2,224.8 
															"/>
						</g>
						<g class="st5">
							<polygon class="st4" points="707.3,300.4 708.7,300.2 707.3,300.1 707.1,298.7 707,300.1 705.6,300.2 707,300.4 707.1,301.8 
															"/>
						</g>
						<polygon class="st4" points="662.9,345.5 663.6,345.4 662.9,345.3 662.8,344.6 662.8,345.3 662,345.4 662.8,345.5 
							662.8,346.2 						"/>
						<g class="st3">
							<polygon class="st4" points="575.1,415.6 575.8,415.5 575.1,415.4 575,414.6 574.9,415.4 574.1,415.5 574.9,415.6 575,416.4 
															"/>
						</g>
						<g class="st7">
							<polygon class="st4" points="604.6,498.6 606,498.4 604.6,498.3 604.5,496.9 604.3,498.3 602.9,498.4 604.3,498.6 604.5,500 
															"/>
						</g>
						<polygon class="st4" points="607.1,424.2 608.5,424.1 607.1,423.9 607,422.5 606.8,423.9 605.4,424.1 606.8,424.2 607,425.7 
													"/>
						<polygon class="st4" points="497.5,499.4 498.2,499.3 497.5,499.2 497.4,498.4 497.3,499.2 496.5,499.3 497.3,499.4 
							497.4,500.1 						"/>
						<polygon class="st4" points="419.5,469.2 420.9,469 419.5,468.9 419.4,467.5 419.2,468.9 417.8,469 419.2,469.2 419.4,470.6 
													"/>
						<polygon class="st4" points="453.4,354 454.8,353.9 453.4,353.7 453.2,352.3 453.1,353.7 451.7,353.9 453.1,354 453.2,355.5 
													"/>
						<polygon class="st4" points="78.1,389.8 79.5,389.7 78.1,389.5 78,388.1 77.8,389.5 76.5,389.7 77.8,389.8 78,391.2 						"/>
						<polygon class="st4" points="456.3,484 457,483.9 456.3,483.9 456.2,483.1 456.1,483.9 455.4,483.9 456.1,484 456.2,484.7 
													"/>
						<polygon class="st4" points="626.8,460.3 627.6,460.2 626.8,460.1 626.7,459.4 626.7,460.1 625.9,460.2 626.7,460.3 
							626.7,461.1 						"/>
						<polygon class="st4" points="320.6,386 322.1,385.9 320.6,385.7 320.5,384.3 320.4,385.7 318.9,385.9 320.4,386 320.5,387.4 
													"/>
						<g class="st3">
							<polygon class="st4" points="344.3,465.6 345.8,465.4 344.3,465.3 344.2,463.9 344,465.3 342.6,465.4 344,465.6 344.2,467 
															"/>
						</g>
						<g class="st11">
							<polygon class="st4" points="340.4,422.1 341.1,422 340.4,421.9 340.3,421.1 340.2,421.9 339.4,422 340.2,422.1 340.3,422.8 
															"/>
						</g>
						<polygon class="st4" points="442.6,417.4 443.4,417.3 442.6,417.2 442.5,416.5 442.4,417.2 441.7,417.3 442.4,417.4 
							442.5,418.2 						"/>
						<polygon class="st4" points="324.7,466.9 325.5,466.8 324.7,466.7 324.6,465.9 324.5,466.7 323.8,466.8 324.5,466.9 
							324.6,467.6 						"/>
						<polygon class="st4" points="361.2,487.7 362.6,487.6 361.2,487.4 361.1,486.1 360.9,487.4 359.6,487.6 360.9,487.7 
							361.1,489.1 						"/>
						<polygon class="st4" points="476.5,455.5 478.5,455.3 476.5,455.1 476.3,453.1 476,455.1 474.1,455.3 476,455.5 476.3,457.5 
													"/>
						<g class="st5">
							<polygon class="st4" points="670.1,453.6 671.5,453.4 670.1,453.3 669.9,451.9 669.8,453.3 668.4,453.4 669.8,453.6 
								669.9,455 							"/>
						</g>
						<polygon class="st4" points="681.8,466.3 683.2,466.2 681.8,466 681.6,464.6 681.5,466 680.1,466.2 681.5,466.3 681.6,467.7 
													"/>
						<polygon class="st4" points="259.9,396 260.6,395.9 259.9,395.8 259.8,395.1 259.8,395.8 259,395.9 259.8,396 259.8,396.7 
													"/>
						<g class="st3">
							<polygon class="st4" points="557.9,393.2 559.3,393.1 557.9,392.9 557.7,391.5 557.5,392.9 556.2,393.1 557.5,393.2 
								557.7,394.6 							"/>
						</g>
						<polygon class="st4" points="741,369.5 741.7,369.4 741,369.3 740.9,368.6 740.8,369.3 740,369.4 740.8,369.5 740.9,370.3 
													"/>
						<polygon class="st10" points="243.3,440.5 244.7,440.4 243.3,440.2 243.2,438.9 243,440.2 241.7,440.4 243,440.5 243.2,441.9 
													"/>
						<g class="st3">
							<polygon class="st4" points="297.5,401.6 299.5,403.2 298,401.2 299.5,399.2 297.5,400.8 295.6,399.2 297.1,401.2 
								295.6,403.2 							"/>
						</g>
						<g class="st3">
							<polygon class="st4" points="189.5,105.6 191.5,107.2 189.9,105.2 191.5,103.2 189.5,104.8 187.5,103.2 189.1,105.2 
								187.5,107.2 							"/>
						</g>
						<polygon class="st4" points="197.1,402.3 198.3,402.2 197.1,402.1 196.9,400.9 196.8,402.1 195.6,402.2 196.8,402.3 
							196.9,403.5 						"/>
						<g class="st7">
							<polygon class="st4" points="230.6,362.7 232.5,362.5 230.6,362.3 230.3,360.4 230.1,362.3 228.2,362.5 230.1,362.7 
								230.3,364.7 							"/>
						</g>
						<polygon class="st4" points="30.3,402.3 31,402.2 30.3,402.1 30.3,401.4 30.2,402.1 29.5,402.2 30.2,402.3 30.3,403 						"/>
						<polygon class="st4" points="726.8,474.8 728.8,474.6 726.8,474.4 726.6,472.4 726.4,474.4 724.4,474.6 726.4,474.8 
							726.6,476.8 						"/>
						<g class="st5">
							<polygon class="st4" points="269.5,469.3 270.9,469.1 269.5,469 269.4,467.6 269.2,469 267.9,469.1 269.2,469.3 269.4,470.6 
															"/>
						</g>
						<g class="st3">
							<polygon class="st4" points="227.6,374.6 228.4,374.6 227.6,374.5 227.5,373.7 227.5,374.5 226.7,374.6 227.5,374.6 
								227.5,375.4 							"/>
						</g>
						<polygon class="st4" points="150,474.7 150.8,474.6 150,474.5 149.9,473.8 149.8,474.5 149.1,474.6 149.8,474.7 149.9,475.5 
													"/>
						<polygon class="st4" points="429.7,177.4 431.1,177.2 429.7,177.1 429.6,175.7 429.4,177.1 428,177.2 429.4,177.4 
							429.6,178.8 						"/>
						<polygon class="st4" points="225.5,416 226.8,415.9 225.5,415.7 225.3,414.4 225.2,415.7 223.8,415.9 225.2,416 225.3,417.4 
													"/>
						<g class="st7">
							<polygon class="st4" points="91.4,493.4 93.4,493.2 91.4,493 91.2,491 91,493 89.1,493.2 91,493.4 91.2,495.4 							"/>
						</g>
						<polygon class="st4" points="89.1,458.4 89.8,458.3 89.1,458.3 89.1,457.6 89,458.3 88.3,458.3 89,458.4 89.1,459.1 						"/>
						<polygon class="st4" points="283.3,436.2 284.7,436 283.3,435.9 283.1,434.5 283,435.9 281.6,436 283,436.2 283.1,437.6 
													"/>
						<polygon class="st4" points="13.8,446.8 15.1,446.6 13.8,446.5 13.6,445.1 13.5,446.5 12.1,446.6 13.5,446.8 13.6,448.1 
													"/>
						<polygon class="st4" points="129,414.6 131,414.4 129,414.2 128.8,412.2 128.6,414.2 126.6,414.4 128.6,414.6 128.8,416.6 
													"/>
						<polygon class="st4" points="5.1,390.7 5.8,390.6 5.1,390.5 5,389.8 4.9,390.5 4.2,390.6 4.9,390.7 5,391.4 						"/>
						<polygon class="st4" points="164.8,292 166.8,291.8 164.8,291.6 164.6,289.6 164.4,291.6 162.4,291.8 164.4,292 164.6,294 
													"/>
						<g class="st11">
							<polygon class="st4" points="188.2,440.4 189.8,440.2 188.2,440 188,438.4 187.8,440 186.2,440.2 187.8,440.4 188,442 
															"/>
						</g>
					</g>
					<g>
						<g class="st3">
							<polygon class="st4" points="38.2,93.4 40.1,95 38.6,93 40.1,91 38.2,92.6 36.2,91 37.7,93 36.2,95 							"/>
							<polygon class="st4" points="38.6,93.5 43,93 38.6,92.5 38.2,88.2 37.7,92.5 33.3,93 37.7,93.5 38.2,97.8 							"/>
						</g>
						<polygon class="st4" points="292.4,94.7 293.2,95.3 292.6,94.5 293.2,93.8 292.4,94.4 291.6,93.8 292.2,94.5 291.6,95.3 
													"/>
						<polygon class="st4" points="292.5,94.6 294.1,94.5 292.5,94.5 292.4,92.5 292.3,94.5 290.4,94.5 292.3,94.6 292.4,96.3 
													"/>
						<polygon class="st4" points="224.7,248.8 225.9,248.6 224.7,248.5 224.6,247.3 224.5,248.5 223.2,248.6 224.5,248.8 
							224.6,250 						"/>
						<g class="st3">
							<polygon class="st4" points="319.6,141.8 321.6,141.5 319.6,141.3 319.4,139.4 319.2,141.3 317.2,141.5 319.2,141.8 
								319.4,143.7 							"/>
						</g>
						<g class="st3">
							<polygon class="st4" points="372.3,77.5 374.3,77.3 372.3,77 372.1,75.1 371.9,77 369.9,77.3 371.9,77.5 372.1,79.4 							
								"/>
						</g>
						<polygon class="st4" points="270.4,282 271.8,281.9 270.4,281.7 270.2,280.3 270.1,281.7 268.7,281.9 270.1,282 270.2,283.4 
													"/>
						<g class="st5">
							<polygon class="st4" points="101.8,124.2 103.2,124.1 101.8,123.9 101.6,122.5 101.5,123.9 100.1,124.1 101.5,124.2 
								101.6,125.6 							"/>
						</g>
						<g class="st6">
							<polygon class="st4" points="214.5,319.1 216.5,318.9 214.5,318.7 214.3,316.7 214.1,318.7 212.2,318.9 214.1,319.1 
								214.3,321.1 							"/>
						</g>
						<g class="st5">
							<polygon class="st4" points="388.3,163.2 389.5,163.1 388.3,162.9 388.2,161.7 388.1,162.9 386.9,163.1 388.1,163.2 
								388.2,164.4 							"/>
						</g>
						<g class="st5">
							<polygon class="st4" points="373.5,14.5 374.8,14.4 373.5,14.2 373.4,13 373.3,14.2 372.1,14.4 373.3,14.5 373.4,15.7 
															"/>
						</g>
						<g class="st7">
							<polygon class="st4" points="264.3,136 266.3,135.8 264.3,135.6 264.1,133.6 263.9,135.6 261.9,135.8 263.9,136 264.1,137.9 
															"/>
						</g>
						<g class="st5">
							<polygon class="st4" points="68.8,28.6 70.2,28.5 68.8,28.3 68.7,26.9 68.5,28.3 67.1,28.5 68.5,28.6 68.7,30 							"/>
						</g>
						<polygon class="st4" points="122.5,230.3 124.6,230.1 122.5,229.8 122.2,227.7 122,229.8 119.8,230.1 122,230.3 122.2,232.5 
													"/>
						<g class="st8">
							<polygon class="st4" points="109.5,167.9 110.2,167.8 109.5,167.8 109.4,167.1 109.3,167.8 108.6,167.8 109.3,167.9 
								109.4,168.6 							"/>
						</g>
						<g class="st5">
							<polygon class="st4" points="229.3,101.1 230.7,101 229.3,100.8 229.1,99.4 229,100.8 227.6,101 229,101.1 229.1,102.5 
															"/>
						</g>
						<polygon class="st4" points="393.3,104.5 394,104.4 393.3,104.3 393.3,103.6 393.2,104.3 392.5,104.4 393.2,104.5 
							393.3,105.2 						"/>
						<polygon class="st4" points="184.9,146.2 185.6,146.1 184.9,146.1 184.9,145.4 184.8,146.1 184.1,146.1 184.8,146.2 
							184.9,146.9 						"/>
						<polygon class="st4" points="76.7,156.3 79.9,156 76.7,155.6 76.4,152.5 76,155.6 72.9,156 76,156.3 76.4,159.4 						"/>
						<g class="st5">
							<polygon class="st4" points="281.6,4.6 283,4.4 281.6,4.3 281.5,2.9 281.4,4.3 280,4.4 281.4,4.6 281.5,5.9 							"/>
						</g>
						<g class="st3">
							<polygon class="st4" points="261.4,147.9 262.1,147.8 261.4,147.7 261.3,146.9 261.2,147.7 260.4,147.8 261.2,147.9 
								261.3,148.6 							"/>
						</g>
						<g class="st7">
							<polygon class="st4" points="290.9,230.9 292.3,230.7 290.9,230.6 290.8,229.1 290.6,230.6 289.2,230.7 290.6,230.9 
								290.8,232.3 							"/>
						</g>
						<polygon class="st4" points="293.4,156.5 294.8,156.4 293.4,156.2 293.2,154.8 293.1,156.2 291.7,156.4 293.1,156.5 
							293.2,157.9 						"/>
						<polygon class="st4" points="84.2,46.6 87.2,46.3 84.2,46 83.8,42.9 83.5,46 80.4,46.3 83.5,46.6 83.8,49.7 						"/>
						<polygon class="st4" points="183.8,231.6 184.5,231.6 183.8,231.5 183.7,230.7 183.6,231.5 182.8,231.6 183.6,231.6 
							183.7,232.4 						"/>
						<polygon class="st4" points="201.2,260.3 202.6,260.1 201.2,260 201.1,258.6 200.9,260 199.5,260.1 200.9,260.3 201.1,261.7 
													"/>
						<polygon class="st4" points="152.7,155.2 153.4,155.1 152.7,155 152.6,154.4 152.6,155 151.9,155.1 152.6,155.2 152.6,155.8 
													"/>
						<g class="st3">
							<polygon class="st4" points="317.1,236.1 318.5,236 317.1,235.8 317,234.4 316.8,235.8 315.4,236 316.8,236.1 317,237.5 
															"/>
						</g>
						<polygon class="st4" points="259.2,189.3 260.6,189.1 259.2,189 259.1,187.6 258.9,189 257.6,189.1 258.9,189.3 259.1,190.6 
													"/>
						<g class="st7">
							<polygon class="st4" points="125.2,266.7 127.2,266.5 125.2,266.2 125,264.3 124.8,266.2 122.8,266.5 124.8,266.7 125,268.6 
															"/>
						</g>
						<g class="st9">
							<polygon class="st4" points="100.2,313.5 101.6,313.3 100.2,313.2 100.1,311.8 99.9,313.2 98.6,313.3 99.9,313.5 
								100.1,314.8 							"/>
						</g>
						<polygon class="st4" points="313.1,192.6 313.9,192.5 313.1,192.4 313,191.6 313,192.4 312.2,192.5 313,192.6 313,193.4 
													"/>
						<g class="st3">
							<polygon class="st4" points="30.6,197.9 32.1,197.7 30.6,197.6 30.5,196.2 30.3,197.6 28.9,197.7 30.3,197.9 30.5,199.3 
															"/>
						</g>
						<polygon class="st4" points="26.7,154.3 27.4,154.3 26.7,154.2 26.6,153.4 26.5,154.2 25.7,154.3 26.5,154.3 26.6,155.1 
													"/>
						<g class="st9">
							<polygon class="st4" points="46.2,271.5 47,271.4 46.2,271.3 46.2,270.6 46.1,271.3 45.3,271.4 46.1,271.5 46.2,272.3 
															"/>
						</g>
						<polygon class="st4" points="11,199.2 11.8,199.1 11,199 10.9,198.2 10.8,199 10.1,199.1 10.8,199.2 10.9,199.9 						"/>
						<polygon class="st4" points="47.5,220 48.9,219.9 47.5,219.7 47.4,218.4 47.2,219.7 45.9,219.9 47.2,220 47.4,221.4 						"/>
						<polygon class="st4" points="212.3,176.3 213.2,176.2 212.3,176.1 212.2,175.2 212.1,176.1 211.1,176.2 212.1,176.3 
							212.2,177.2 						"/>
						<polygon class="st4" points="390.8,247.6 392.2,247.4 390.8,247.3 390.7,245.9 390.5,247.3 389.1,247.4 390.5,247.6 
							390.7,249 						"/>
						<g class="st5">
							<polygon class="st4" points="357.9,237.5 359.3,237.3 357.9,237.2 357.8,235.8 357.6,237.2 356.2,237.3 357.6,237.5 
								357.8,238.9 							"/>
						</g>
						<g class="st5">
							<polygon class="st4" points="356.4,185.9 357.8,185.7 356.4,185.6 356.2,184.1 356.1,185.6 354.7,185.7 356.1,185.9 
								356.2,187.3 							"/>
						</g>
						<g class="st8">
							<polygon class="st4" points="365.7,281.2 366.4,281.1 365.7,281 365.6,280.3 365.5,281 364.8,281.1 365.5,281.2 365.6,281.9 
															"/>
						</g>
						<polygon class="st4" points="368.1,198.6 369.5,198.4 368.1,198.3 367.9,196.9 367.8,198.3 366.4,198.4 367.8,198.6 
							367.9,200 						"/>
						<polygon class="st4" points="277.9,286.7 279.9,286.5 277.9,286.2 277.7,284.3 277.5,286.2 275.5,286.5 277.5,286.7 
							277.7,288.6 						"/>
						<polygon class="st4" points="132.6,216.8 133.4,216.8 132.6,216.7 132.6,215.9 132.5,216.7 131.7,216.8 132.5,216.8 
							132.6,217.6 						"/>
						<polygon class="st4" points="170.4,11.8 171.9,11.6 170.4,11.5 170.3,10.1 170.1,11.5 168.7,11.6 170.1,11.8 170.3,13.2 
													"/>
						<g class="st5">
							<polygon class="st4" points="137.6,1.7 139,1.5 137.6,1.4 137.4,-0.1 137.3,1.4 135.9,1.5 137.3,1.7 137.4,3.1 							"/>
						</g>
						<g class="st8">
							<polygon class="st4" points="145.6,47 146.3,47 145.6,46.9 145.5,46 145.4,46.9 144.7,47 145.4,47 145.5,47.9 							"/>
						</g>
						<polygon class="st4" points="480.4,78.1 481.1,78 480.4,78 480.3,77.3 480.2,78 479.5,78 480.2,78.1 480.3,78.8 						"/>
						<g class="st5">
							<polygon class="st4" points="483.6,3 484.9,2.9 483.6,2.8 483.4,1.4 483.3,2.8 481.9,2.9 483.3,3 483.4,4.4 							"/>
						</g>
						<g class="st3">
							<polygon class="st4" points="238.4,20.9 239.8,20.7 238.4,20.5 238.3,19.2 238.1,20.5 236.7,20.7 238.1,20.9 238.3,22.2 
															"/>
						</g>
						<polygon class="st4" points="17.2,22.5 18.6,22.3 17.2,22.2 17,20.8 16.9,22.2 15.5,22.3 16.9,22.5 17,23.9 						"/>
						<polygon class="st4" points="327.3,17.1 328,17 327.3,16.9 327.2,16.2 327.1,16.9 326.5,17 327.1,17.1 327.2,17.8 						"/>
						<polygon class="st4" points="423.2,20.9 424.6,20.8 423.2,20.6 423.1,19.2 422.9,20.6 421.5,20.8 422.9,20.9 423.1,22.3 
													"/>
						<g class="st3">
							<polygon class="st4" points="446.9,100.5 448.3,100.3 446.9,100.2 446.8,98.8 446.6,100.2 445.2,100.3 446.6,100.5 
								446.8,101.9 							"/>
						</g>
						<polygon class="st4" points="441.9,47.2 442.6,47.1 441.9,47.1 441.8,46.3 441.7,47.1 440.9,47.1 441.7,47.2 441.8,48 						
							"/>
						<polygon class="st4" points="427.3,101.8 428,101.7 427.3,101.6 427.2,100.8 427.1,101.6 426.3,101.7 427.1,101.8 
							427.2,102.5 						"/>
						<polygon class="st4" points="463.8,122.6 465.2,122.5 463.8,122.3 463.7,121 463.5,122.3 462.1,122.5 463.5,122.6 463.7,124 
													"/>
						<polygon class="st4" points="270.4,54.7 272,54.5 270.4,54.3 270.2,52.7 270.1,54.3 268.5,54.5 270.1,54.7 270.2,56.3 						
							"/>
						<polygon class="st4" points="222,213.6 223.5,213.4 222,213.3 221.8,211.7 221.6,213.3 220,213.4 221.6,213.6 221.8,215.2 
													"/>
						<g class="st3">
							<polygon class="st4" points="374,144.2 376,145.7 374.5,143.8 376,141.8 374,143.3 372.1,141.8 373.6,143.8 372.1,145.7 
															"/>
							<polygon class="st4" points="374.5,144.2 378.8,143.8 374.5,143.3 374,139 373.6,143.3 369.3,143.8 373.6,144.2 374,148.5 
															"/>
						</g>
						<polygon class="st4" points="535.6,264.1 536.3,264.7 535.7,263.9 536.3,263.2 535.6,263.8 534.8,263.2 535.4,263.9 
							534.8,264.7 						"/>
						<polygon class="st10" points="535.6,264 537.2,263.9 535.6,263.9 535.6,261.9 535.5,263.9 533.5,263.9 535.5,264 535.6,265.7 
													"/>
						<polygon class="st4" points="707.9,167.2 709.3,167.1 707.9,166.9 707.7,165.5 707.6,166.9 706.2,167.1 707.6,167.2 
							707.7,168.6 						"/>
						<g class="st5">
							<polygon class="st4" points="598.6,124.2 600,124.1 598.6,123.9 598.4,122.5 598.3,123.9 596.9,124.1 598.3,124.2 
								598.4,125.6 							"/>
						</g>
						<g class="st9">
							<polygon class="st4" points="566.3,280.4 568.3,280.2 566.3,280 566.1,278.1 565.9,280 564,280.2 565.9,280.4 566.1,282.4 
															"/>
						</g>
						<g class="st5">
							<polygon class="st4" points="565.6,28.6 567,28.5 565.6,28.3 565.5,26.9 565.3,28.3 563.9,28.5 565.3,28.6 565.5,30 							
								"/>
						</g>
						<polygon class="st10" points="577.5,237.9 578.9,237.7 577.5,237.6 577.3,236.1 577.2,237.6 575.8,237.7 577.2,237.9 
							577.3,239.3 						"/>
						<polygon class="st4" points="560.9,175.5 561.6,175.4 560.9,175.3 560.8,174.6 560.8,175.3 560,175.4 560.8,175.5 
							560.8,176.2 						"/>
						<g class="st5">
							<polygon class="st4" points="726.1,101.1 727.5,101 726.1,100.8 726,99.4 725.8,100.8 724.4,101 725.8,101.1 726,102.5 
															"/>
						</g>
						<g class="st5">
							<polygon class="st4" points="627.7,135.9 629.2,135.8 627.7,135.6 627.6,134.2 627.4,135.6 626,135.8 627.4,135.9 
								627.6,137.3 							"/>
						</g>
						<polygon class="st4" points="681.7,146.2 682.4,146.1 681.7,146.1 681.7,145.4 681.6,146.1 680.9,146.1 681.6,146.2 
							681.7,146.9 						"/>
						<polygon class="st10" points="490,247.3 492,247.1 490,246.9 489.8,244.9 489.6,246.9 487.7,247.1 489.6,247.3 489.8,249.3 
													"/>
						<g class="st5">
							<polygon class="st4" points="490,151.4 491.3,151.3 490,151.1 489.8,149.8 489.7,151.1 488.3,151.3 489.7,151.4 489.8,152.8 
															"/>
						</g>
						<g class="st7">
							<polygon class="st4" points="499.3,377.7 500.7,377.6 499.3,377.4 499.1,376 499,377.4 497.6,377.6 499,377.7 499.1,379.1 
															"/>
						</g>
						<polygon class="st4" points="571.8,37.5 573.2,37.3 571.8,37.2 571.7,35.8 571.5,37.2 570.1,37.3 571.5,37.5 571.7,38.9 
													"/>
						<g class="st3">
							<polygon class="st4" points="680.6,231.6 681.3,231.6 680.6,231.5 680.5,230.7 680.4,231.5 679.6,231.6 680.4,231.6 
								680.5,232.4 							"/>
						</g>
						<polygon class="st4" points="377.5,381 379,380.8 377.5,380.7 377.4,379.3 377.2,380.7 375.8,380.8 377.2,381 377.4,382.4 
													"/>
						<polygon class="st4" points="608.7,85.4 610.1,85.2 608.7,85 608.6,83.6 608.4,85 607,85.2 608.4,85.4 608.6,86.8 						"/>
						<g class="st3">
							<polygon class="st4" points="525.4,383 526.8,382.8 525.4,382.7 525.3,381.3 525.1,382.7 523.7,382.8 525.1,383 525.3,384.4 
															"/>
						</g>
						<g class="st3">
							<polygon class="st4" points="172,487.7 173.4,487.6 172,487.4 171.9,486 171.7,487.4 170.3,487.6 171.7,487.7 171.9,489.1 
															"/>
						</g>
						<polygon class="st4" points="341.3,278.2 342.6,278.1 341.3,277.9 341.1,276.5 341,277.9 339.6,278.1 341,278.2 341.1,279.6 
													"/>
						<g class="st7">
							<polygon class="st4" points="622,266.7 624,266.5 622,266.2 621.8,264.3 621.6,266.2 619.6,266.5 621.6,266.7 621.8,268.6 
															"/>
						</g>
						<polygon class="st4" points="639.4,216.3 640.1,216.2 639.4,216.1 639.3,215.4 639.2,216.1 638.5,216.2 639.2,216.3 
							639.3,217 						"/>
						<g class="st9">
							<polygon class="st4" points="597,313.5 598.4,313.3 597,313.2 596.9,311.8 596.7,313.2 595.4,313.3 596.7,313.5 596.9,314.8 
															"/>
						</g>
						<polygon class="st4" points="521.5,339.4 522.2,339.4 521.5,339.3 521.4,338.5 521.3,339.3 520.5,339.4 521.3,339.4 
							521.4,340.2 						"/>
						<g class="st3">
							<polygon class="st4" points="527.5,197.9 528.9,197.7 527.5,197.6 527.3,196.2 527.2,197.6 525.8,197.7 527.2,197.9 
								527.3,199.3 							"/>
						</g>
						<polygon class="st4" points="574,125.7 574.8,125.6 574,125.6 573.9,124.8 573.8,125.6 573,125.6 573.8,125.7 573.9,126.5 
													"/>
						<polygon class="st4" points="272.1,335 272.9,334.9 272.1,334.8 272,334.1 271.9,334.8 271.2,334.9 271.9,335 272,335.8 
													"/>
						<polygon class="st4" points="330.1,237.6 330.9,237.5 330.1,237.4 330,236.7 330,237.4 329.2,237.5 330,237.6 330,238.4 
													"/>
						<g class="st7">
							<polygon class="st4" points="419,311.9 420.4,311.7 419,311.6 418.8,310.2 418.7,311.6 417.3,311.7 418.7,311.9 418.8,313.3 
															"/>
						</g>
						<g class="st3">
							<polygon class="st4" points="445.1,317.1 446.6,317 445.1,316.8 445,315.4 444.9,316.8 443.4,317 444.9,317.1 445,318.6 
															"/>
						</g>
						<g class="st3">
							<polygon class="st4" points="304.4,321.2 305.9,321.1 304.4,320.9 304.3,319.5 304.1,320.9 302.7,321.1 304.1,321.2 
								304.3,322.6 							"/>
						</g>
						<polygon class="st4" points="518.9,328.6 520.3,328.5 518.9,328.3 518.7,326.9 518.6,328.3 517.2,328.5 518.6,328.6 
							518.7,330 						"/>
						<g class="st5">
							<polygon class="st4" points="486,318.5 487.4,318.4 486,318.2 485.8,316.8 485.7,318.2 484.3,318.4 485.7,318.5 485.8,319.9 
															"/>
						</g>
						<polygon class="st4" points="496.1,279.6 497.5,279.5 496.1,279.3 496,277.9 495.8,279.3 494.4,279.5 495.8,279.6 496,281 
													"/>
						<polygon class="st4" points="458.2,318.6 459,318.6 458.2,318.5 458.1,317.7 458,318.5 457.2,318.6 458,318.6 458.1,319.4 
													"/>
						<g class="st3">
							<polygon class="st4" points="0.8,305.7 2.2,305.6 0.8,305.4 0.6,304 0.5,305.4 -0.9,305.6 0.5,305.7 0.6,307.1 							"/>
						</g>
						<polygon class="st4" points="-3.2,262.2 -2.4,262.1 -3.2,262 -3.3,261.2 -3.4,262 -4.1,262.1 -3.4,262.2 -3.3,263 						"/>
						<polygon class="st4" points="74.5,317.2 75.9,317.1 74.5,316.9 74.4,315.5 74.2,316.9 72.8,317.1 74.2,317.2 74.4,318.6 
													"/>
						<g class="st5">
							<polygon class="st4" points="94.6,394.9 96,394.8 94.6,394.6 94.5,393.2 94.3,394.6 92.9,394.8 94.3,394.9 94.5,396.3 
															"/>
						</g>
						<g class="st9">
							<polygon class="st4" points="538.3,93.9 539.7,93.8 538.3,93.6 538.2,92.2 538,93.6 536.6,93.8 538,93.9 538.2,95.4 							
								"/>
						</g>
						<polygon class="st4" points="13.8,307.2 14.6,307.1 13.8,307 13.7,306.3 13.7,307 12.9,307.1 13.7,307.2 13.7,308 						"/>
						<polygon class="st4" points="507.8,199.2 508.6,199.1 507.8,199 507.7,198.2 507.6,199 506.9,199.1 507.6,199.2 507.7,199.9 
													"/>
						<polygon class="st4" points="361.6,322.2 362.4,322.1 361.6,322 361.5,321.2 361.5,322 360.7,322.1 361.5,322.2 361.5,322.9 
													"/>
						<polygon class="st4" points="606.1,184.6 609.2,184.3 606.1,184 605.8,180.9 605.4,184 602.4,184.3 605.4,184.6 605.8,187.7 
													"/>
						<g class="st5">
							<polygon class="st4" points="610,360.4 611.4,360.2 610,360.1 609.9,358.7 609.7,360.1 608.3,360.2 609.7,360.4 609.9,361.8 
															"/>
						</g>
						<g class="st5">
							<polygon class="st4" points="564.7,332.7 566.1,332.6 564.7,332.4 564.5,331 564.4,332.4 563,332.6 564.4,332.7 564.5,334.1 
															"/>
						</g>
						<g class="st8">
							<polygon class="st4" points="574,428 574.7,427.9 574,427.9 573.9,427.1 573.8,427.9 573.1,427.9 573.8,428 573.9,428.7 
															"/>
						</g>
						<g class="st8">
							<polygon class="st4" points="442.7,207.7 443.4,207.6 442.7,207.5 442.6,206.8 442.6,207.5 441.9,207.6 442.6,207.7 
								442.6,208.4 							"/>
						</g>
						<polygon class="st4" points="257.7,343 259.1,342.8 257.7,342.6 257.6,341.2 257.4,342.6 256,342.8 257.4,343 257.6,344.3 
													"/>
						<polygon class="st4" points="21.4,340.5 22.1,340.4 21.4,340.4 21.3,339.7 21.2,340.4 20.5,340.4 21.2,340.5 21.3,341.2 
													"/>
						<polygon class="st4" points="51,445.4 52.6,445.2 51,445.1 50.8,443.5 50.7,445.1 49.1,445.2 50.7,445.4 50.8,447 						"/>
						<g class="st11">
							<polygon class="st4" points="667.3,11.8 668.7,11.6 667.3,11.5 667.1,10.1 667,11.5 665.5,11.6 667,11.8 667.1,13.2 							
								"/>
						</g>
						<g class="st5">
							<polygon class="st4" points="634.4,1.7 635.8,1.5 634.4,1.4 634.2,-0.1 634.1,1.4 632.7,1.5 634.1,1.7 634.2,3.1 							"/>
						</g>
						<g class="st8">
							<polygon class="st4" points="642.1,45.3 642.8,45.2 642.1,45.2 642,44.5 642,45.2 641.2,45.2 642,45.3 642,46 							"/>
						</g>
						<polygon class="st4" points="735.2,20.9 736.7,20.7 735.2,20.5 735.1,19.2 735,20.5 733.5,20.7 735,20.9 735.1,22.2 						"/>
						<polygon class="st4" points="514,22.5 515.4,22.3 514,22.2 513.8,20.8 513.7,22.2 512.3,22.3 513.7,22.5 513.8,23.9 						"/>
						<g class="st11">
							<polygon class="st4" points="695.4,65.2 697.4,65 695.4,64.8 695.2,62.8 695,64.8 693,65 695,65.2 695.2,67.2 							"/>
						</g>
						<polygon class="st4" points="466.5,280.4 469.8,280.1 466.5,279.7 466.2,276.5 465.8,279.7 462.6,280.1 465.8,280.4 
							466.2,283.6 						"/>
						<polygon class="st4" points="478.8,201.5 480.3,201.3 478.8,201.2 478.6,199.6 478.4,201.2 476.8,201.3 478.4,201.5 
							478.6,203.1 						"/>
						<polygon class="st4" points="378.7,294.1 380.3,294 378.7,293.8 378.5,292.2 378.3,293.8 376.7,294 378.3,294.1 378.5,295.7 
													"/>
						<g class="st3">
							<polygon class="st4" points="334.9,351.5 336.9,353 335.3,351 336.9,349.1 334.9,350.6 332.9,349.1 334.5,351 332.9,353 
															"/>
							<polygon class="st4" points="335.4,351.5 339.7,351 335.4,350.6 334.9,346.2 334.4,350.6 330,351 334.4,351.5 334.9,355.9 
															"/>
						</g>
						<g class="st3">
							<polygon class="st4" points="141.4,355.8 143.8,357.6 141.9,355.2 143.8,352.9 141.4,354.7 139.1,352.9 140.9,355.2 
								139.1,357.6 							"/>
							<polygon class="st4" points="142,355.8 147.2,355.2 142,354.7 141.4,349.5 140.9,354.7 135.7,355.2 140.9,355.8 141.4,361 
															"/>
						</g>
						<g class="st3">
							<polygon class="st4" points="633.3,409.5 635.3,409.2 633.3,409 633.1,407.1 632.9,409 630.9,409.2 632.9,409.5 633.1,411.4 
															"/>
						</g>
						<g class="st3">
							<polygon class="st4" points="686,345.2 688,345 686,344.8 685.8,342.8 685.6,344.8 683.6,345 685.6,345.2 685.8,347.2 
															"/>
						</g>
						<g class="st5">
							<polygon class="st4" points="415.5,392 416.9,391.8 415.5,391.7 415.3,390.2 415.2,391.7 413.8,391.8 415.2,392 415.3,393.4 
															"/>
						</g>
						<g class="st5">
							<polygon class="st4" points="702,430.9 703.2,430.8 702,430.7 701.9,429.5 701.8,430.7 700.6,430.8 701.8,430.9 701.9,432.1 
															"/>
						</g>
						<polygon class="st4" points="740.2,423.1 742.2,422.8 740.2,422.6 740,420.7 739.8,422.6 737.8,422.8 739.8,423.1 740,425 
													"/>
						<g class="st8">
							<polygon class="st4" points="602,292.6 602.7,292.5 602,292.4 602,291.7 601.9,292.4 601.2,292.5 601.9,292.6 602,293.3 
															"/>
						</g>
						<polygon class="st4" points="377.8,443.2 378.5,443.1 377.8,443.1 377.7,442.4 377.6,443.1 376.9,443.1 377.6,443.2 
							377.7,443.9 						"/>
						<g class="st5">
							<polygon class="st4" points="543,368.8 544.4,368.7 543,368.5 542.8,367.1 542.7,368.5 541.3,368.7 542.7,368.8 542.8,370.2 
															"/>
						</g>
						<polygon class="st4" points="707,372.2 707.7,372.1 707,372.1 707,371.3 706.9,372.1 706.2,372.1 706.9,372.2 707,372.9 
													"/>
						<polygon class="st4" points="498.6,413.9 499.3,413.9 498.6,413.8 498.5,413.1 498.5,413.8 497.8,413.9 498.5,413.9 
							498.5,414.6 						"/>
						<polygon class="st4" points="646.4,252.1 647.1,252.7 646.5,251.9 647.1,251.1 646.4,251.8 645.6,251.1 646.2,251.9 
							645.6,252.7 						"/>
						<polygon class="st10" points="646.4,252 648,251.9 646.4,251.8 646.4,249.8 646.3,251.8 644.4,251.9 646.3,252 646.4,253.7 
													"/>
						<polygon class="st4" points="717.3,209.5 719.2,209.3 717.3,209 717,207.1 716.8,209 714.9,209.3 716.8,209.5 717,211.4 
													"/>
						<polygon class="st10" points="738.8,118.1 740.2,117.9 738.8,117.8 738.7,116.3 738.5,117.8 737.1,117.9 738.5,118.1 
							738.7,119.5 						"/>
						<polygon class="st10" points="654.3,178.9 656.3,178.7 654.3,178.4 654.1,176.5 653.9,178.4 651.9,178.7 653.9,178.9 
							654.1,180.8 						"/>
						<g class="st7">
							<polygon class="st4" points="663.5,309.2 664.9,309.1 663.5,308.9 663.4,307.5 663.2,308.9 661.8,309.1 663.2,309.2 
								663.4,310.7 							"/>
						</g>
						<g class="st3">
							<polygon class="st4" points="232.6,180.2 234,180.1 232.6,179.9 232.5,178.5 232.3,179.9 230.9,180.1 232.3,180.2 
								232.5,181.6 							"/>
						</g>
						<g class="st7">
							<polygon class="st4" points="694.8,109.6 696.8,109.4 694.8,109.2 694.6,107.2 694.4,109.2 692.4,109.4 694.4,109.6 
								694.6,111.6 							"/>
						</g>
						<g class="st3">
							<polygon class="st4" points="651.3,97.8 652.7,97.6 651.3,97.5 651.2,96.1 651,97.5 649.7,97.6 651,97.8 651.2,99.1 							
								"/>
						</g>
						<polygon class="st4" points="685.7,271 686.5,270.9 685.7,270.8 685.6,270 685.5,270.8 684.8,270.9 685.5,271 685.6,271.8 
													"/>
						<g class="st5">
							<polygon class="st4" points="731.2,323.6 732.6,323.4 731.2,323.3 731.1,321.9 730.9,323.3 729.5,323.4 730.9,323.6 
								731.1,325 							"/>
						</g>
						<g class="st5">
							<polygon class="st4" points="729,264.2 730.4,264.1 729,264 728.8,262.5 728.7,264 727.3,264.1 728.7,264.2 728.8,265.7 
															"/>
						</g>
						<g class="st8">
							<polygon class="st4" points="766.3,224.1 767,224 766.3,224 766.2,223.3 766.2,224 765.5,224 766.2,224.1 766.2,224.8 
															"/>
						</g>
						<g class="st5">
							<polygon class="st4" points="707.3,300.4 708.7,300.2 707.3,300.1 707.1,298.7 707,300.1 705.6,300.2 707,300.4 707.1,301.8 
															"/>
						</g>
						<polygon class="st4" points="662.9,345.5 663.6,345.4 662.9,345.3 662.8,344.6 662.8,345.3 662,345.4 662.8,345.5 
							662.8,346.2 						"/>
						<g class="st3">
							<polygon class="st4" points="575.1,415.6 575.8,415.5 575.1,415.4 575,414.6 574.9,415.4 574.1,415.5 574.9,415.6 575,416.4 
															"/>
						</g>
						<g class="st7">
							<polygon class="st4" points="604.6,498.6 606,498.4 604.6,498.3 604.5,496.9 604.3,498.3 602.9,498.4 604.3,498.6 604.5,500 
															"/>
						</g>
						<polygon class="st4" points="607.1,424.2 608.5,424.1 607.1,423.9 607,422.5 606.8,423.9 605.4,424.1 606.8,424.2 607,425.7 
													"/>
						<polygon class="st4" points="497.5,499.4 498.2,499.3 497.5,499.2 497.4,498.4 497.3,499.2 496.5,499.3 497.3,499.4 
							497.4,500.1 						"/>
						<polygon class="st4" points="419.5,469.2 420.9,469 419.5,468.9 419.4,467.5 419.2,468.9 417.8,469 419.2,469.2 419.4,470.6 
													"/>
						<polygon class="st4" points="453.4,354 454.8,353.9 453.4,353.7 453.2,352.3 453.1,353.7 451.7,353.9 453.1,354 453.2,355.5 
													"/>
						<polygon class="st4" points="78.1,389.8 79.5,389.7 78.1,389.5 78,388.1 77.8,389.5 76.5,389.7 77.8,389.8 78,391.2 						"/>
						<polygon class="st4" points="456.3,484 457,483.9 456.3,483.9 456.2,483.1 456.1,483.9 455.4,483.9 456.1,484 456.2,484.7 
													"/>
						<polygon class="st4" points="626.8,460.3 627.6,460.2 626.8,460.1 626.7,459.4 626.7,460.1 625.9,460.2 626.7,460.3 
							626.7,461.1 						"/>
						<polygon class="st4" points="320.6,386 322.1,385.9 320.6,385.7 320.5,384.3 320.4,385.7 318.9,385.9 320.4,386 320.5,387.4 
													"/>
						<g class="st3">
							<polygon class="st4" points="344.3,465.6 345.8,465.4 344.3,465.3 344.2,463.9 344,465.3 342.6,465.4 344,465.6 344.2,467 
															"/>
						</g>
						<g class="st11">
							<polygon class="st4" points="340.4,422.1 341.1,422 340.4,421.9 340.3,421.1 340.2,421.9 339.4,422 340.2,422.1 340.3,422.8 
															"/>
						</g>
						<polygon class="st4" points="442.6,417.4 443.4,417.3 442.6,417.2 442.5,416.5 442.4,417.2 441.7,417.3 442.4,417.4 
							442.5,418.2 						"/>
						<polygon class="st4" points="324.7,466.9 325.5,466.8 324.7,466.7 324.6,465.9 324.5,466.7 323.8,466.8 324.5,466.9 
							324.6,467.6 						"/>
						<polygon class="st4" points="361.2,487.7 362.6,487.6 361.2,487.4 361.1,486.1 360.9,487.4 359.6,487.6 360.9,487.7 
							361.1,489.1 						"/>
						<polygon class="st4" points="476.5,455.5 478.5,455.3 476.5,455.1 476.3,453.1 476,455.1 474.1,455.3 476,455.5 476.3,457.5 
													"/>
						<g class="st5">
							<polygon class="st4" points="670.1,453.6 671.5,453.4 670.1,453.3 669.9,451.9 669.8,453.3 668.4,453.4 669.8,453.6 
								669.9,455 							"/>
						</g>
						<polygon class="st4" points="681.8,466.3 683.2,466.2 681.8,466 681.6,464.6 681.5,466 680.1,466.2 681.5,466.3 681.6,467.7 
													"/>
						<polygon class="st4" points="259.9,396 260.6,395.9 259.9,395.8 259.8,395.1 259.8,395.8 259,395.9 259.8,396 259.8,396.7 
													"/>
						<g class="st3">
							<polygon class="st4" points="557.9,393.2 559.3,393.1 557.9,392.9 557.7,391.5 557.5,392.9 556.2,393.1 557.5,393.2 
								557.7,394.6 							"/>
						</g>
						<polygon class="st4" points="741,369.5 741.7,369.4 741,369.3 740.9,368.6 740.8,369.3 740,369.4 740.8,369.5 740.9,370.3 
													"/>
						<polygon class="st10" points="243.3,440.5 244.7,440.4 243.3,440.2 243.2,438.9 243,440.2 241.7,440.4 243,440.5 243.2,441.9 
													"/>
						<g class="st3">
							<polygon class="st4" points="297.5,401.6 299.5,403.2 298,401.2 299.5,399.2 297.5,400.8 295.6,399.2 297.1,401.2 
								295.6,403.2 							"/>
						</g>
						<g class="st3">
							<polygon class="st4" points="189.5,105.6 191.5,107.2 189.9,105.2 191.5,103.2 189.5,104.8 187.5,103.2 189.1,105.2 
								187.5,107.2 							"/>
						</g>
						<polygon class="st4" points="197.1,402.3 198.3,402.2 197.1,402.1 196.9,400.9 196.8,402.1 195.6,402.2 196.8,402.3 
							196.9,403.5 						"/>
						<g class="st7">
							<polygon class="st4" points="230.6,362.7 232.5,362.5 230.6,362.3 230.3,360.4 230.1,362.3 228.2,362.5 230.1,362.7 
								230.3,364.7 							"/>
						</g>
						<polygon class="st4" points="30.3,402.3 31,402.2 30.3,402.1 30.3,401.4 30.2,402.1 29.5,402.2 30.2,402.3 30.3,403 						"/>
						<polygon class="st4" points="726.8,474.8 728.8,474.6 726.8,474.4 726.6,472.4 726.4,474.4 724.4,474.6 726.4,474.8 
							726.6,476.8 						"/>
						<g class="st5">
							<polygon class="st4" points="269.5,469.3 270.9,469.1 269.5,469 269.4,467.6 269.2,469 267.9,469.1 269.2,469.3 269.4,470.6 
															"/>
						</g>
						<g class="st3">
							<polygon class="st4" points="227.6,374.6 228.4,374.6 227.6,374.5 227.5,373.7 227.5,374.5 226.7,374.6 227.5,374.6 
								227.5,375.4 							"/>
						</g>
						<polygon class="st4" points="150,474.7 150.8,474.6 150,474.5 149.9,473.8 149.8,474.5 149.1,474.6 149.8,474.7 149.9,475.5 
													"/>
						<polygon class="st4" points="429.7,177.4 431.1,177.2 429.7,177.1 429.6,175.7 429.4,177.1 428,177.2 429.4,177.4 
							429.6,178.8 						"/>
						<polygon class="st4" points="225.5,416 226.8,415.9 225.5,415.7 225.3,414.4 225.2,415.7 223.8,415.9 225.2,416 225.3,417.4 
													"/>
						<g class="st7">
							<polygon class="st4" points="91.4,493.4 93.4,493.2 91.4,493 91.2,491 91,493 89.1,493.2 91,493.4 91.2,495.4 							"/>
						</g>
						<polygon class="st4" points="89.1,458.4 89.8,458.3 89.1,458.3 89.1,457.6 89,458.3 88.3,458.3 89,458.4 89.1,459.1 						"/>
						<polygon class="st4" points="283.3,436.2 284.7,436 283.3,435.9 283.1,434.5 283,435.9 281.6,436 283,436.2 283.1,437.6 
													"/>
						<polygon class="st4" points="13.8,446.8 15.1,446.6 13.8,446.5 13.6,445.1 13.5,446.5 12.1,446.6 13.5,446.8 13.6,448.1 
													"/>
						<polygon class="st4" points="129,414.6 131,414.4 129,414.2 128.8,412.2 128.6,414.2 126.6,414.4 128.6,414.6 128.8,416.6 
													"/>
						<polygon class="st4" points="5.1,390.7 5.8,390.6 5.1,390.5 5,389.8 4.9,390.5 4.2,390.6 4.9,390.7 5,391.4 						"/>
						<polygon class="st4" points="164.8,292 166.8,291.8 164.8,291.6 164.6,289.6 164.4,291.6 162.4,291.8 164.4,292 164.6,294 
													"/>
						<g class="st11">
							<polygon class="st4" points="188.2,440.4 189.8,440.2 188.2,440 188,438.4 187.8,440 186.2,440.2 187.8,440.4 188,442 
															"/>
						</g>
					</g>
					<rect y="330.1" class="st12" width="750" height="169.8"/>
					
						<linearGradient id="SVGID_3_" gradientUnits="userSpaceOnUse" x1="285.1213" y1="301.4559" x2="278.4613" y2="257.6859" gradientTransform="matrix(1 0 0 -1 0 561.9)">
						<stop  offset="0" style="stop-color:#FF00C1"/>
						<stop  offset="1" style="stop-color:#140035"/>
					</linearGradient>
					<path class="st13" d="M398.9,331.1h3.5L378.2,313l-31.8-18.1l-4.5-2l-4.3-2.7l-2.9-3.9l-2.7-3.2L330,281l-3.4,0.4l-4.9,0.5
						L295,262.1l-7.4,0.4l-11.3,7.3l-9,4.4l-14.2,4.7l-9.1,3.2l-19.2,5.8l-9.8,3.8l-4.8,5.6l-5.2,1.7l-5.2,0.5l-8.5,2.2l-8,3.1
						l-11.7,3.7l-9,3.5l-8.8,6.2c0,0-3.9,3.2-6.4,5.3c26.1,2.3,78.1,7.7,78.1,7.7L398.9,331.1z"/>
					
						<linearGradient id="SVGID_4_" gradientUnits="userSpaceOnUse" x1="564.6622" y1="292.0708" x2="560.8622" y2="256.8608" gradientTransform="matrix(1 0 0 -1 0 561.9)">
						<stop  offset="0" style="stop-color:#FF00C1"/>
						<stop  offset="1" style="stop-color:#140035"/>
					</linearGradient>
					<polygon class="st14" points="678,331.1 667.3,331.1 635.5,305.6 631,303.6 626.6,300.9 623.8,297.1 621,293.8 619.2,291.7 
						615.8,292 610.9,292.5 584.1,272.9 576.8,273.3 565.5,280.6 556.5,285 542.2,289.7 533.2,292.9 514,298.7 504.2,302.4 
						499.4,308 494.2,309.7 489,310.2 480.5,312.4 472.6,315.5 460.9,319.1 451.9,322.7 443.1,331.1 438.1,331.1 					"/>
					
						<linearGradient id="SVGID_5_" gradientUnits="userSpaceOnUse" x1="37.2117" y1="288.8197" x2="28.6517" y2="243.1497" gradientTransform="matrix(1 0 0 -1 0 561.9)">
						<stop  offset="0" style="stop-color:#FF00C1"/>
						<stop  offset="1" style="stop-color:#140035"/>
					</linearGradient>
					<polygon class="st15" points="-16.2,331.1 76.1,331.1 49,305.6 46.1,303.6 39.8,293.8 36.4,292 24.7,283.2 14.2,279.4 
						-16.2,292.9 -16.2,293 					"/>
					
						<linearGradient id="SVGID_6_" gradientUnits="userSpaceOnUse" x1="56.4459" y1="296.9006" x2="60.2459" y2="256.9406" gradientTransform="matrix(1 0 0 -1 0 561.9)">
						<stop  offset="0" style="stop-color:#FF00C1"/>
						<stop  offset="1" style="stop-color:#140035"/>
					</linearGradient>
					<polygon class="st16" points="185.5,318 172.9,318 164.2,309.7 148.4,311 126,300.2 121.6,299.1 117.6,295.1 109.8,292.6 
						90.7,285.2 83.2,280.2 71.6,269.1 65.9,268.7 40.3,284.1 31,283.6 28.2,285.2 24,287.6 12.1,292.6 5.1,294.3 -45.8,318 
						-62.5,318 					"/>
					
						<linearGradient id="SVGID_7_" gradientUnits="userSpaceOnUse" x1="683.3973" y1="284.3197" x2="687.2073" y2="244.3497" gradientTransform="matrix(1 0 0 -1 0 561.9)">
						<stop  offset="0" style="stop-color:#FF00C1"/>
						<stop  offset="1" style="stop-color:#140035"/>
					</linearGradient>
					<polygon class="st17" points="760.2,298.7 749.8,294.8 742.4,289.7 730.8,278.6 725,278.2 699.5,293.6 690.2,293.1 
						687.4,294.7 683.1,297.1 671.3,302.1 664.3,303.8 613.3,327.5 760.2,327.5 					"/>
					
						<linearGradient id="SVGID_8_" gradientUnits="userSpaceOnUse" x1="91.761" y1="293.4817" x2="82.251" y2="243.0517" gradientTransform="matrix(1 0 0 -1 0 561.9)">
						<stop  offset="0" style="stop-color:#FF00C1"/>
						<stop  offset="1" style="stop-color:#140035"/>
					</linearGradient>
					<polygon class="st18" points="196,331.1 189.2,331.1 157.4,308.8 152.8,306.8 148.5,304.2 145.6,300.3 142.9,297.1 141,294.9 
						130.3,295.5 110.4,277.3 106,276.1 98.6,276.5 78.3,288.2 64.1,293 55,296.2 35.8,301.9 26,305.7 21.3,311.2 16.1,312.9 
						10.9,313.4 2.4,315.6 -5.6,318.7 -17.3,322.4 -26.2,331.1 -35,331.1 -36.2,331.1 					"/>
					
						<linearGradient id="SVGID_9_" gradientUnits="userSpaceOnUse" x1="447.1128" y1="309.7999" x2="443.9328" y2="251.4899" gradientTransform="matrix(1 0 0 -1 0 561.9)">
						<stop  offset="0" style="stop-color:#FF00C1"/>
						<stop  offset="1" style="stop-color:#140035"/>
					</linearGradient>
					<polygon class="st19" points="529.2,322.9 525.4,322.9 520.3,322.9 513.4,313.2 500.3,307.2 489.4,309.3 472.9,288.1 
						459.5,279.3 453.6,272.6 448.9,271.9 445.8,272.7 443.7,272.4 418.5,287 415.3,286.4 409.2,290.2 406.6,293.3 375.9,310.3 
						357.3,322.9 					"/>
					
						<linearGradient id="SVGID_10_" gradientUnits="userSpaceOnUse" x1="203.21" y1="310.14" x2="203.21" y2="234.02" gradientTransform="matrix(1 0 0 -1 0 561.9)">
						<stop  offset="0" style="stop-color:#FF00C1"/>
						<stop  offset="1" style="stop-color:#140035"/>
					</linearGradient>
					<polygon class="st20" points="395,331.1 375.5,331.1 362,317.2 341.5,319.3 309.8,302.9 303,302.5 296.2,300.8 290,294.7 
						278,290.7 256.6,283.9 248.3,279.4 236.8,271.6 210,253.8 204.5,255.4 200.4,255.2 194.9,260.9 189.3,264.1 176.4,271.5 
						156.1,276.7 151.8,279.2 145.2,283 137.6,287.5 126.9,290.7 116,293.4 37.2,319.2 11.4,331.1 					"/>
					
						<linearGradient id="SVGID_11_" gradientUnits="userSpaceOnUse" x1="488.6326" y1="290.3105" x2="485.7826" y2="247.4905" gradientTransform="matrix(1 0 0 -1 0 561.9)">
						<stop  offset="0" style="stop-color:#FF00C1"/>
						<stop  offset="1" style="stop-color:#140035"/>
					</linearGradient>
					<polygon class="st21" points="600.8,331.1 593.9,331.1 562.1,308.8 557.6,306.8 553.2,304.2 550.3,300.3 547.6,297.1 
						545.7,294.9 542.4,295.3 537.4,295.7 534.4,290.5 518.3,277.1 515.1,277.3 510.7,276.1 503.3,276.5 492.1,283.8 483,288.2 
						468.8,293 459.8,296.2 440.5,301.9 430.8,305.7 426,311.2 420.8,312.9 415.6,313.4 407.1,315.6 399.1,318.7 387.4,322.4 
						378.5,331.1 369.7,331.1 368.6,331.1 					"/>
					
						<linearGradient id="SVGID_12_" gradientUnits="userSpaceOnUse" x1="373.5785" y1="407.02" x2="376.3285" y2="256.03" gradientTransform="matrix(1 0 0 -1 0 561.9)">
						<stop  offset="0" style="stop-color:#FFFF00"/>
						<stop  offset="1" style="stop-color:#F21DAE"/>
					</linearGradient>
					<circle class="st22" cx="375" cy="232.9" r="76.5"/>
					
						<linearGradient id="SVGID_13_" gradientUnits="userSpaceOnUse" x1="538.9844" y1="284.0901" x2="539.9344" y2="240.3201" gradientTransform="matrix(1 0 0 -1 0 561.9)">
						<stop  offset="0" style="stop-color:#FF00C1"/>
						<stop  offset="1" style="stop-color:#140035"/>
					</linearGradient>
					<polygon class="st23" points="664.1,331.1 651.5,331.1 642.8,322.8 627,324.1 604.7,313.3 600.3,312.2 596.2,308.2 
						588.5,305.6 569.3,298.3 561.9,293.3 550.3,282.1 544.5,281.8 519,297.2 509.7,296.6 506.9,298.2 502.6,300.7 490.8,305.6 
						483.7,307.4 432.8,331.1 416.2,331.1 					"/>
					
						<linearGradient id="SVGID_14_" gradientUnits="userSpaceOnUse" x1="276.3594" y1="284.09" x2="277.3094" y2="240.32" gradientTransform="matrix(1 0 0 -1 0 561.9)">
						<stop  offset="0" style="stop-color:#FF00C1"/>
						<stop  offset="1" style="stop-color:#140035"/>
					</linearGradient>
					<polygon class="st24" points="401.5,331.1 388.9,331.1 380.2,322.8 364.4,324.1 342,313.3 337.7,312.2 333.6,308.2 
						325.9,305.6 306.7,298.3 299.2,293.3 287.7,282.1 281.9,281.8 256.3,297.2 247,296.6 244.2,298.2 240,300.7 228.2,305.6 
						221.1,307.4 170.2,331.1 153.5,331.1 					"/>
					
						<linearGradient id="SVGID_15_" gradientUnits="userSpaceOnUse" x1="613.692" y1="312.9699" x2="611.502" y2="237.4399" gradientTransform="matrix(1 0 0 -1 0 561.9)">
						<stop  offset="0" style="stop-color:#FF00C1"/>
						<stop  offset="1" style="stop-color:#140035"/>
					</linearGradient>
					<path class="st25" d="M750.4,331.1h3.2L731.7,313l-28.8-18.1l-4.1-2l-4-2.6l-2.6-3.9l-2.5-3.2L688,281l-12.6-8.6l-8.6-4.8
						l-3.6-4.5l-2.9,0.2l-4-1.2l-6.7,0.4l-10.1,7.3l-23,16c-0.5,0.4-1.2,0.4-1.6,0c-0.1-0.1-0.2-0.3-0.3-0.5l-16.3,3.5l-13.2,5
						l-22.7,7.8L536.6,312l-7.9,6.2l-59.6,12.7l124.5,0.3L750.4,331.1z"/>
					
						<linearGradient id="SVGID_16_" gradientUnits="userSpaceOnUse" x1="8.6577" y1="251.2701" x2="-0.2323" y2="85.7101" gradientTransform="matrix(1 0 0 -1 0 561.9)">
						<stop  offset="0" style="stop-color:#FF00C1"/>
						<stop  offset="1" style="stop-color:#140035"/>
					</linearGradient>
					<polygon class="st26" points="-8.6,336.5 23.5,331.4 23.4,330.9 -8.6,336 					"/>
					
						<linearGradient id="SVGID_17_" gradientUnits="userSpaceOnUse" x1="23.4909" y1="250.4799" x2="14.6109" y2="84.9099" gradientTransform="matrix(1 0 0 -1 0 561.9)">
						<stop  offset="0" style="stop-color:#FF00C1"/>
						<stop  offset="1" style="stop-color:#140035"/>
					</linearGradient>
					<polygon class="st27" points="-8.6,342.2 52.9,331.4 52.8,330.9 -8.6,341.7 					"/>
					
						<linearGradient id="SVGID_18_" gradientUnits="userSpaceOnUse" x1="38.3584" y1="249.6801" x2="29.4684" y2="84.1101" gradientTransform="matrix(1 0 0 -1 0 561.9)">
						<stop  offset="0" style="stop-color:#FF00C1"/>
						<stop  offset="1" style="stop-color:#140035"/>
					</linearGradient>
					<polygon class="st28" points="-8.6,349 82.4,331.4 82.3,330.9 -8.6,348.5 					"/>
					
						<linearGradient id="SVGID_19_" gradientUnits="userSpaceOnUse" x1="53.2654" y1="248.8797" x2="44.3854" y2="83.3097" gradientTransform="matrix(1 0 0 -1 0 561.9)">
						<stop  offset="0" style="stop-color:#FF00C1"/>
						<stop  offset="1" style="stop-color:#140035"/>
					</linearGradient>
					<polygon class="st29" points="-8.6,357.5 111.8,331.4 111.7,330.9 -8.6,357 					"/>
					
						<linearGradient id="SVGID_20_" gradientUnits="userSpaceOnUse" x1="68.2339" y1="248.0798" x2="59.3539" y2="82.5098" gradientTransform="matrix(1 0 0 -1 0 561.9)">
						<stop  offset="0" style="stop-color:#FF00C1"/>
						<stop  offset="1" style="stop-color:#140035"/>
					</linearGradient>
					<polygon class="st30" points="-8.6,368.2 141.3,331.4 141.1,330.9 -8.6,367.7 					"/>
					
						<linearGradient id="SVGID_21_" gradientUnits="userSpaceOnUse" x1="83.2885" y1="247.2701" x2="74.4085" y2="81.7001" gradientTransform="matrix(1 0 0 -1 0 561.9)">
						<stop  offset="0" style="stop-color:#FF00C1"/>
						<stop  offset="1" style="stop-color:#140035"/>
					</linearGradient>
					<polygon class="st31" points="-8.6,382.1 170.7,331.4 170.6,330.9 -8.6,381.6 					"/>
					
						<linearGradient id="SVGID_22_" gradientUnits="userSpaceOnUse" x1="98.4813" y1="246.4599" x2="89.6013" y2="80.8899" gradientTransform="matrix(1 0 0 -1 0 561.9)">
						<stop  offset="0" style="stop-color:#FF00C1"/>
						<stop  offset="1" style="stop-color:#140035"/>
					</linearGradient>
					<polygon class="st32" points="-8.6,401 200.2,331.3 200,330.9 -8.6,400.5 					"/>
					
						<linearGradient id="SVGID_23_" gradientUnits="userSpaceOnUse" x1="113.8941" y1="245.6298" x2="105.0141" y2="80.0598" gradientTransform="matrix(1 0 0 -1 0 561.9)">
						<stop  offset="0" style="stop-color:#FF00C1"/>
						<stop  offset="1" style="stop-color:#140035"/>
					</linearGradient>
					<polygon class="st33" points="-8.6,428.1 229.6,331.3 229.5,330.9 -8.6,427.6 					"/>
					
						<linearGradient id="SVGID_24_" gradientUnits="userSpaceOnUse" x1="129.7156" y1="244.7797" x2="120.8356" y2="79.2097" gradientTransform="matrix(1 0 0 -1 0 561.9)">
						<stop  offset="0" style="stop-color:#FF00C1"/>
						<stop  offset="1" style="stop-color:#140035"/>
					</linearGradient>
					<polygon class="st34" points="-8.6,470.4 259.1,331.3 258.9,330.9 -8.6,469.8 					"/>
					
						<linearGradient id="SVGID_25_" gradientUnits="userSpaceOnUse" x1="171.4964" y1="242.5402" x2="162.6164" y2="76.9702" gradientTransform="matrix(1 0 0 -1 -3.614550e-03 561.903)">
						<stop  offset="0" style="stop-color:#FF00C1"/>
						<stop  offset="1" style="stop-color:#140035"/>
					</linearGradient>
					<polygon class="st35" points="43.7,506.9 288.3,331 288.6,331.4 43.9,507.3 					"/>
					
						<linearGradient id="SVGID_26_" gradientUnits="userSpaceOnUse" x1="247.9208" y1="238.4399" x2="239.0408" y2="72.87" gradientTransform="matrix(1 0 0 -1 0 561.9)">
						<stop  offset="0" style="stop-color:#FF00C1"/>
						<stop  offset="1" style="stop-color:#140035"/>
					</linearGradient>
					<polygon class="st36" points="167.9,507.3 167.5,507 317.7,330.9 318.1,331.3 					"/>
					
						<linearGradient id="SVGID_27_" gradientUnits="userSpaceOnUse" x1="324.3459" y1="234.3402" x2="315.4659" y2="68.7702" gradientTransform="matrix(1 0 0 -1 0 561.9)">
						<stop  offset="0" style="stop-color:#FF00C1"/>
						<stop  offset="1" style="stop-color:#140035"/>
					</linearGradient>
					<polygon class="st37" points="291.8,507.2 291.3,507.1 347.1,331 347.6,331.2 					"/>
					
						<linearGradient id="SVGID_28_" gradientUnits="userSpaceOnUse" x1="400.7501" y1="230.2411" x2="391.8701" y2="64.6711" gradientTransform="matrix(1 0 0 -1 2.308298e-03 561.9022)">
						<stop  offset="0" style="stop-color:#FF00C1"/>
						<stop  offset="1" style="stop-color:#140035"/>
					</linearGradient>
					<polygon class="st38" points="376.5,331.2 377,331.1 415.6,507.1 415.1,507.2 					"/>
					
						<linearGradient id="SVGID_29_" gradientUnits="userSpaceOnUse" x1="477.157" y1="226.1418" x2="468.277" y2="60.5718" gradientTransform="matrix(1 0 0 -1 3.009843e-02 561.9087)">
						<stop  offset="0" style="stop-color:#FF00C1"/>
						<stop  offset="1" style="stop-color:#140035"/>
					</linearGradient>
					<polygon class="st39" points="406,331.3 406.4,331 539.4,507.1 539,507.4 					"/>
					
						<linearGradient id="SVGID_30_" gradientUnits="userSpaceOnUse" x1="553.6162" y1="222.0402" x2="544.7362" y2="56.4802" gradientTransform="matrix(1 0 0 -1 0 561.9)">
						<stop  offset="0" style="stop-color:#FF00C1"/>
						<stop  offset="1" style="stop-color:#140035"/>
					</linearGradient>
					<polygon class="st40" points="662.9,507.3 435.5,331.3 435.8,330.9 663.2,506.9 					"/>
					
						<linearGradient id="SVGID_31_" gradientUnits="userSpaceOnUse" x1="617.94" y1="218.59" x2="609.06" y2="53.02" gradientTransform="matrix(1 0 0 -1 0 561.9)">
						<stop  offset="0" style="stop-color:#FF00C1"/>
						<stop  offset="1" style="stop-color:#140035"/>
					</linearGradient>
					<polygon class="st41" points="763.4,494 465.2,330.9 465,331.3 763.4,494.6 					"/>
					
						<linearGradient id="SVGID_32_" gradientUnits="userSpaceOnUse" x1="631.3053" y1="217.8797" x2="622.4253" y2="52.3097" gradientTransform="matrix(1 0 0 -1 0 561.9)">
						<stop  offset="0" style="stop-color:#FF00C1"/>
						<stop  offset="1" style="stop-color:#140035"/>
					</linearGradient>
					<polygon class="st42" points="763.4,444.6 494.7,330.9 494.5,331.3 763.4,445.1 					"/>
					
						<linearGradient id="SVGID_33_" gradientUnits="userSpaceOnUse" x1="645.159" y1="217.1301" x2="636.2791" y2="51.57" gradientTransform="matrix(1 0 0 -1 0 561.9)">
						<stop  offset="0" style="stop-color:#FF00C1"/>
						<stop  offset="1" style="stop-color:#140035"/>
					</linearGradient>
					<polygon class="st43" points="763.4,413.4 524.1,330.9 523.9,331.3 763.4,413.9 					"/>
					
						<linearGradient id="SVGID_34_" gradientUnits="userSpaceOnUse" x1="659.2737" y1="216.3798" x2="650.3937" y2="50.8098" gradientTransform="matrix(1 0 0 -1 0 561.9)">
						<stop  offset="0" style="stop-color:#FF00C1"/>
						<stop  offset="1" style="stop-color:#140035"/>
					</linearGradient>
					<polygon class="st44" points="763.4,391.9 553.5,330.9 553.4,331.4 763.4,392.5 					"/>
					
						<linearGradient id="SVGID_35_" gradientUnits="userSpaceOnUse" x1="673.5375" y1="215.6101" x2="664.6575" y2="50.0401" gradientTransform="matrix(1 0 0 -1 0 561.9)">
						<stop  offset="0" style="stop-color:#FF00C1"/>
						<stop  offset="1" style="stop-color:#140035"/>
					</linearGradient>
					<polygon class="st45" points="763.4,376.3 583,330.9 582.8,331.4 763.4,376.8 					"/>
					
						<linearGradient id="SVGID_36_" gradientUnits="userSpaceOnUse" x1="687.9063" y1="214.8397" x2="679.0263" y2="49.2697" gradientTransform="matrix(1 0 0 -1 0 561.9)">
						<stop  offset="0" style="stop-color:#FF00C1"/>
						<stop  offset="1" style="stop-color:#140035"/>
					</linearGradient>
					<polygon class="st46" points="763.4,364.4 612.4,330.9 612.3,331.4 763.4,364.9 					"/>
					
						<linearGradient id="SVGID_37_" gradientUnits="userSpaceOnUse" x1="702.3379" y1="214.0696" x2="693.4579" y2="48.4996" gradientTransform="matrix(1 0 0 -1 0 561.9)">
						<stop  offset="0" style="stop-color:#FF00C1"/>
						<stop  offset="1" style="stop-color:#140035"/>
					</linearGradient>
					<polygon class="st47" points="763.4,355 641.8,330.9 641.7,331.4 763.4,355.5 					"/>
					
						<linearGradient id="SVGID_38_" gradientUnits="userSpaceOnUse" x1="716.8176" y1="213.2896" x2="707.9376" y2="47.7196" gradientTransform="matrix(1 0 0 -1 0 561.9)">
						<stop  offset="0" style="stop-color:#FF00C1"/>
						<stop  offset="1" style="stop-color:#140035"/>
					</linearGradient>
					<polygon class="st48" points="763.4,347.4 671.3,330.9 671.2,331.4 763.4,347.9 					"/>
					
						<linearGradient id="SVGID_39_" gradientUnits="userSpaceOnUse" x1="731.3328" y1="212.5098" x2="722.4528" y2="46.9398" gradientTransform="matrix(1 0 0 -1 0 561.9)">
						<stop  offset="0" style="stop-color:#FF00C1"/>
						<stop  offset="1" style="stop-color:#140035"/>
					</linearGradient>
					<polygon class="st49" points="763.4,341.1 700.7,330.9 700.6,331.4 763.4,341.6 					"/>
					
						<linearGradient id="SVGID_40_" gradientUnits="userSpaceOnUse" x1="745.87" y1="211.73" x2="736.99" y2="46.16" gradientTransform="matrix(1 0 0 -1 0 561.9)">
						<stop  offset="0" style="stop-color:#FF00C1"/>
						<stop  offset="1" style="stop-color:#140035"/>
					</linearGradient>
					<polygon class="st50" points="763.4,335.9 730.2,330.9 730.1,331.4 763.4,336.4 					"/>
					
						<linearGradient id="SVGID_41_" gradientUnits="userSpaceOnUse" x1="377.4331" y1="231.4898" x2="368.5531" y2="65.9298" gradientTransform="matrix(1 0 0 -1 0 561.9)">
						<stop  offset="0" style="stop-color:#FF00C1"/>
						<stop  offset="1" style="stop-color:#140035"/>
					</linearGradient>
					<rect x="-8.6" y="330.9" class="st51" width="772" height="0.5"/>
					
						<linearGradient id="SVGID_42_" gradientUnits="userSpaceOnUse" x1="377.5854" y1="231.4897" x2="368.7054" y2="65.9197" gradientTransform="matrix(1 0 0 -1 0 561.9)">
						<stop  offset="0" style="stop-color:#FF00C1"/>
						<stop  offset="1" style="stop-color:#140035"/>
					</linearGradient>
					<rect x="-8.6" y="333.7" class="st52" width="772" height="0.5"/>
					
						<linearGradient id="SVGID_43_" gradientUnits="userSpaceOnUse" x1="377.7522" y1="231.4799" x2="368.8722" y2="65.9099" gradientTransform="matrix(1 0 0 -1 0 561.9)">
						<stop  offset="0" style="stop-color:#FF00C1"/>
						<stop  offset="1" style="stop-color:#140035"/>
					</linearGradient>
					<rect x="-8.6" y="336.8" class="st53" width="772" height="0.5"/>
					
						<linearGradient id="SVGID_44_" gradientUnits="userSpaceOnUse" x1="377.9377" y1="231.4696" x2="369.0577" y2="65.8996" gradientTransform="matrix(1 0 0 -1 0 561.9)">
						<stop  offset="0" style="stop-color:#FF00C1"/>
						<stop  offset="1" style="stop-color:#140035"/>
					</linearGradient>
					<rect x="-8.6" y="340.3" class="st54" width="772" height="0.5"/>
					
						<linearGradient id="SVGID_45_" gradientUnits="userSpaceOnUse" x1="378.1437" y1="231.4598" x2="369.2637" y2="65.8898" gradientTransform="matrix(1 0 0 -1 0 561.9)">
						<stop  offset="0" style="stop-color:#FF00C1"/>
						<stop  offset="1" style="stop-color:#140035"/>
					</linearGradient>
					<rect x="-8.6" y="344.2" class="st55" width="772" height="0.5"/>
					
						<linearGradient id="SVGID_46_" gradientUnits="userSpaceOnUse" x1="378.3744" y1="231.4398" x2="369.4944" y2="65.8798" gradientTransform="matrix(1 0 0 -1 0 561.9)">
						<stop  offset="0" style="stop-color:#FF00C1"/>
						<stop  offset="1" style="stop-color:#140035"/>
					</linearGradient>
					<rect x="-8.6" y="348.5" class="st56" width="772" height="0.5"/>
					
						<linearGradient id="SVGID_47_" gradientUnits="userSpaceOnUse" x1="378.6355" y1="231.4297" x2="369.7555" y2="65.8597" gradientTransform="matrix(1 0 0 -1 0 561.9)">
						<stop  offset="0" style="stop-color:#FF00C1"/>
						<stop  offset="1" style="stop-color:#140035"/>
					</linearGradient>
					<rect x="-8.6" y="353.4" class="st57" width="772" height="0.5"/>
					
						<linearGradient id="SVGID_48_" gradientUnits="userSpaceOnUse" x1="378.9322" y1="231.4099" x2="370.0522" y2="65.8499" gradientTransform="matrix(1 0 0 -1 0 561.9)">
						<stop  offset="0" style="stop-color:#FF00C1"/>
						<stop  offset="1" style="stop-color:#140035"/>
					</linearGradient>
					<rect x="-8.6" y="358.9" class="st58" width="772" height="0.5"/>
					
						<linearGradient id="SVGID_49_" gradientUnits="userSpaceOnUse" x1="379.2722" y1="231.3799" x2="370.3923" y2="65.8199" gradientTransform="matrix(1 0 0 -1 0 561.9)">
						<stop  offset="0" style="stop-color:#FF00C1"/>
						<stop  offset="1" style="stop-color:#140035"/>
					</linearGradient>
					<rect x="-8.6" y="365.3" class="st59" width="772" height="0.5"/>
					
						<linearGradient id="SVGID_50_" gradientUnits="userSpaceOnUse" x1="379.6701" y1="231.37" x2="370.7801" y2="65.81" gradientTransform="matrix(1 0 0 -1 0 561.9)">
						<stop  offset="0" style="stop-color:#FF00C1"/>
						<stop  offset="1" style="stop-color:#140035"/>
					</linearGradient>
					<rect x="-8.6" y="372.7" class="st60" width="772" height="0.5"/>
					
						<linearGradient id="SVGID_51_" gradientUnits="userSpaceOnUse" x1="380.1308" y1="231.3499" x2="371.2508" y2="65.7799" gradientTransform="matrix(1 0 0 -1 0 561.9)">
						<stop  offset="0" style="stop-color:#FF00C1"/>
						<stop  offset="1" style="stop-color:#140035"/>
					</linearGradient>
					<rect x="-8.6" y="381.3" class="st61" width="772" height="0.5"/>
					
						<linearGradient id="SVGID_52_" gradientUnits="userSpaceOnUse" x1="380.6816" y1="231.3199" x2="371.8016" y2="65.7499" gradientTransform="matrix(1 0 0 -1 0 561.9)">
						<stop  offset="0" style="stop-color:#FF00C1"/>
						<stop  offset="1" style="stop-color:#140035"/>
					</linearGradient>
					<rect x="-8.6" y="391.6" class="st62" width="772" height="0.5"/>
					
						<linearGradient id="SVGID_53_" gradientUnits="userSpaceOnUse" x1="381.3524" y1="231.2799" x2="372.4624" y2="65.7199" gradientTransform="matrix(1 0 0 -1 0 561.9)">
						<stop  offset="0" style="stop-color:#FF00C1"/>
						<stop  offset="1" style="stop-color:#140035"/>
					</linearGradient>
					<rect x="-8.6" y="404.1" class="st63" width="772" height="0.5"/>
					
						<linearGradient id="SVGID_54_" gradientUnits="userSpaceOnUse" x1="382.1694" y1="231.24" x2="373.2894" y2="65.67" gradientTransform="matrix(1 0 0 -1 0 561.9)">
						<stop  offset="0" style="stop-color:#FF00C1"/>
						<stop  offset="1" style="stop-color:#140035"/>
					</linearGradient>
					<rect x="-8.6" y="419.4" class="st64" width="772" height="0.5"/>
					
						<linearGradient id="SVGID_55_" gradientUnits="userSpaceOnUse" x1="383.2092" y1="231.1801" x2="374.3292" y2="65.6201" gradientTransform="matrix(1 0 0 -1 0 561.9)">
						<stop  offset="0" style="stop-color:#FF00C1"/>
						<stop  offset="1" style="stop-color:#140035"/>
					</linearGradient>
					<rect x="-8.6" y="438.9" class="st65" width="772" height="0.5"/>
					
						<linearGradient id="SVGID_56_" gradientUnits="userSpaceOnUse" x1="384.5652" y1="231.1097" x2="375.6852" y2="65.5397" gradientTransform="matrix(1 0 0 -1 0 561.9)">
						<stop  offset="0" style="stop-color:#FF00C1"/>
						<stop  offset="1" style="stop-color:#140035"/>
					</linearGradient>
					<rect x="-8.6" y="464.2" class="st66" width="772" height="0.5"/>
					
						<linearGradient id="SVGID_57_" gradientUnits="userSpaceOnUse" x1="386.4102" y1="231.01" x2="377.5302" y2="65.44" gradientTransform="matrix(1 0 0 -1 0 561.9)">
						<stop  offset="0" style="stop-color:#FF00C1"/>
						<stop  offset="1" style="stop-color:#140035"/>
					</linearGradient>
					<rect x="-8.6" y="498.7" class="st67" width="772" height="0.5"/>
				</g>
			</g>
		</g>
	</g>
</g>
</svg>
